<?xml version="1.0" encoding="UTF-8" standalone="no"?>
<svg xmlns="http://www.w3.org/2000/svg" xmlns:xlink="http://www.w3.org/1999/xlink" contentScriptType="application/ecmascript" contentStyleType="text/css" height="828px" preserveAspectRatio="none" style="width:758px;height:828px;background:transparent;" version="1.1" viewBox="0 0 758 828" width="758px" zoomAndPan="magnify"><defs><filter height="300%" id="fja6fuvbeour0" width="300%" x="-1" y="-1"><feGaussianBlur result="blurOut" stdDeviation="2.0"/><feColorMatrix in="blurOut" result="blurOut2" type="matrix" values="0 0 0 0 0 0 0 0 0 0 0 0 0 0 0 0 0 0 .4 0"/><feOffset dx="4.0" dy="4.0" in="blurOut2" result="blurOut3"/><feBlend in="SourceGraphic" in2="blurOut3" mode="normal"/></filter></defs><g><!--MD5=[dd91eae41778c45e12552e5329e240e8]
class Turn--><rect codeLine="1" fill="#FEFECE" filter="url(#fja6fuvbeour0)" height="73.6094" id="Turn" style="stroke:#A80036;stroke-width:1.5;" width="68" x="16" y="176"/><ellipse cx="35.5" cy="192" fill="#EB937F" rx="11" ry="11" style="stroke:#A80036;stroke-width:1.0;"/><path d="M34.2969,192.875 L35.75,192.875 L35.75,192.9844 C35.75,193.3906 35.7813,193.5469 35.8594,193.7031 C36.0156,193.9531 36.2969,194.1094 36.5938,194.1094 C36.8438,194.1094 37.1094,193.9688 37.2656,193.75 C37.3906,193.5938 37.4219,193.4375 37.4219,192.9844 L37.4219,191.0625 C37.4219,190.9063 37.4219,190.8594 37.4063,190.7031 C37.3438,190.2344 37.0313,189.9219 36.5781,189.9219 C36.3281,189.9219 36.0625,190.0625 35.8906,190.2813 C35.7813,190.4531 35.75,190.6094 35.75,191.0625 L35.75,191.1875 L34.2969,191.1875 L34.2969,188.7813 L38.2813,188.7813 L38.2813,189.6406 C38.2813,190.0469 38.3125,190.2188 38.3906,190.375 C38.5625,190.625 38.8438,190.7813 39.125,190.7813 C39.3906,190.7813 39.6563,190.6406 39.8281,190.4219 C39.9375,190.25 39.9688,190.1094 39.9688,189.6406 L39.9688,187.0938 L32.3438,187.0938 C31.9063,187.0938 31.7813,187.1094 31.625,187.2031 C31.375,187.3594 31.2188,187.6563 31.2188,187.9375 C31.2188,188.2188 31.3594,188.4688 31.5781,188.6406 C31.7344,188.75 31.9219,188.7813 32.3438,188.7813 L32.5938,188.7813 L32.5938,195.2969 L32.3438,195.2969 C31.9375,195.2969 31.7813,195.3125 31.625,195.4219 C31.375,195.5938 31.2188,195.8594 31.2188,196.1563 C31.2188,196.4219 31.3594,196.6719 31.5781,196.8281 C31.7188,196.9531 31.9531,197 32.3438,197 L40.3438,197 L40.3438,194.4219 C40.3438,193.9844 40.3125,193.8438 40.2344,193.6875 C40.0625,193.4375 39.7813,193.2813 39.5,193.2813 C39.2344,193.2813 38.9688,193.3906 38.7969,193.6406 C38.6875,193.7969 38.6563,193.9375 38.6563,194.4219 L38.6563,195.2969 L34.2969,195.2969 L34.2969,192.875 Z " fill="#000000"/><text fill="#000000" font-family="sans-serif" font-size="12" lengthAdjust="spacing" textLength="26" x="50.5" y="196.1543">Turn</text><line style="stroke:#A80036;stroke-width:1.5;" x1="17" x2="83" y1="208" y2="208"/><text fill="#000000" font-family="sans-serif" font-size="11" lengthAdjust="spacing" textLength="38" x="22" y="222.2104">Player,</text><text fill="#000000" font-family="sans-serif" font-size="11" lengthAdjust="spacing" textLength="56" x="22" y="235.0151">Opponent</text><line style="stroke:#A80036;stroke-width:1.5;" x1="17" x2="83" y1="241.6094" y2="241.6094"/><!--MD5=[56044dde1eb5c59443a17cac917b404f]
class Battle--><rect codeLine="7" fill="#FEFECE" filter="url(#fja6fuvbeour0)" height="315.2891" id="Battle" style="stroke:#A80036;stroke-width:1.5;" width="258" x="119" y="55.5"/><ellipse cx="226.75" cy="71.5" fill="#ADD1B2" rx="11" ry="11" style="stroke:#A80036;stroke-width:1.0;"/><path d="M229.0938,67.1719 C228.1563,66.7344 227.5625,66.5938 226.6875,66.5938 C224.0625,66.5938 222.0625,68.6719 222.0625,71.3906 L222.0625,72.5156 C222.0625,75.0938 224.1719,76.9844 227.0625,76.9844 C228.2813,76.9844 229.4375,76.6875 230.1875,76.1406 C230.7656,75.7344 231.0938,75.2813 231.0938,74.8906 C231.0938,74.4375 230.7031,74.0469 230.2344,74.0469 C230.0156,74.0469 229.8125,74.125 229.625,74.3125 C229.1719,74.7969 229.1719,74.7969 228.9844,74.8906 C228.5625,75.1563 227.875,75.2813 227.1094,75.2813 C225.0625,75.2813 223.7656,74.1875 223.7656,72.4844 L223.7656,71.3906 C223.7656,69.6094 225.0156,68.2969 226.75,68.2969 C227.3281,68.2969 227.9375,68.4531 228.4063,68.7031 C228.8906,68.9844 229.0625,69.2031 229.1563,69.6094 C229.2188,70.0156 229.25,70.1406 229.3906,70.2656 C229.5313,70.4063 229.7656,70.5156 229.9844,70.5156 C230.25,70.5156 230.5156,70.375 230.6875,70.1563 C230.7969,70 230.8281,69.8125 230.8281,69.3906 L230.8281,67.9688 C230.8281,67.5313 230.8125,67.4063 230.7188,67.25 C230.5625,66.9844 230.2813,66.8438 229.9844,66.8438 C229.6875,66.8438 229.4844,66.9375 229.2656,67.25 L229.0938,67.1719 Z " fill="#000000"/><text fill="#000000" font-family="sans-serif" font-size="12" lengthAdjust="spacing" textLength="34" x="247.25" y="75.6543">Battle</text><line style="stroke:#A80036;stroke-width:1.5;" x1="120" x2="376" y1="87.5" y2="87.5"/><rect fill="none" height="6" style="stroke:#C82930;stroke-width:1.0;" width="6" x="127" y="95.5"/><text fill="#000000" font-family="sans-serif" font-size="11" lengthAdjust="spacing" textLength="65" x="139" y="101.7104">bool isOver</text><rect fill="none" height="6" style="stroke:#C82930;stroke-width:1.0;" width="6" x="127" y="108.3047"/><text fill="#000000" font-family="sans-serif" font-size="11" lengthAdjust="spacing" textLength="73" x="139" y="114.5151">Hero *player</text><rect fill="none" height="6" style="stroke:#C82930;stroke-width:1.0;" width="6" x="127" y="121.1094"/><text fill="#000000" font-family="sans-serif" font-size="11" lengthAdjust="spacing" textLength="91" x="139" y="127.3198">Hero *opponent</text><rect fill="none" height="6" style="stroke:#C82930;stroke-width:1.0;" width="6" x="127" y="133.9141"/><text fill="#000000" font-family="sans-serif" font-size="11" lengthAdjust="spacing" textLength="51" x="139" y="140.1245">Turn turn</text><rect fill="none" height="6" style="stroke:#C82930;stroke-width:1.0;" width="6" x="127" y="146.7188"/><text fill="#000000" font-family="sans-serif" font-size="11" lengthAdjust="spacing" textLength="67" x="139" y="152.9292">Turn winner</text><line style="stroke:#A80036;stroke-width:1.0;stroke-dasharray:1.0,2.0;" x1="120" x2="376" y1="159.5234" y2="159.5234"/><rect fill="#F24D5C" height="6" style="stroke:#C82930;stroke-width:1.0;" width="6" x="127" y="167.5234"/><text fill="#000000" font-family="sans-serif" font-size="11" lengthAdjust="spacing" textLength="232" x="139" y="173.7339">bool checkNumber(range, number) const</text><rect fill="#F24D5C" height="6" style="stroke:#C82930;stroke-width:1.0;" width="6" x="127" y="180.3281"/><text fill="#000000" font-family="sans-serif" font-size="11" lengthAdjust="spacing" textLength="175" x="139" y="186.5386">bool checkYesNo(yesNo) const</text><line style="stroke:#A80036;stroke-width:1.0;stroke-dasharray:1.0,2.0;" x1="120" x2="376" y1="193.1328" y2="193.1328"/><rect fill="#F24D5C" height="6" style="stroke:#C82930;stroke-width:1.0;" width="6" x="127" y="201.1328"/><text fill="#000000" font-family="sans-serif" font-size="11" lengthAdjust="spacing" textLength="110" x="139" y="207.3433">void display() const</text><rect fill="#F24D5C" height="6" style="stroke:#C82930;stroke-width:1.0;" width="6" x="127" y="213.9375"/><text fill="#000000" font-family="sans-serif" font-size="11" lengthAdjust="spacing" textLength="87" x="139" y="220.1479">void nextTurn()</text><rect fill="#F24D5C" height="6" style="stroke:#C82930;stroke-width:1.0;" width="6" x="127" y="226.7422"/><text fill="#000000" font-family="sans-serif" font-size="11" lengthAdjust="spacing" textLength="97" x="139" y="232.9526">void playerTurn()</text><rect fill="#F24D5C" height="6" style="stroke:#C82930;stroke-width:1.0;" width="6" x="127" y="239.5469"/><text fill="#000000" font-family="sans-serif" font-size="11" lengthAdjust="spacing" textLength="115" x="139" y="245.7573">void opponentTurn()</text><rect fill="#F24D5C" height="6" style="stroke:#C82930;stroke-width:1.0;" width="6" x="127" y="252.3516"/><text fill="#000000" font-family="sans-serif" font-size="11" lengthAdjust="spacing" textLength="85" x="139" y="258.562">void concede()</text><rect fill="#F24D5C" height="6" style="stroke:#C82930;stroke-width:1.0;" width="6" x="127" y="265.1563"/><text fill="#000000" font-family="sans-serif" font-size="11" lengthAdjust="spacing" textLength="142" x="139" y="271.3667">void fight(Hero *, Hero *)</text><rect fill="#F24D5C" height="6" style="stroke:#C82930;stroke-width:1.0;" width="6" x="127" y="277.9609"/><text fill="#000000" font-family="sans-serif" font-size="11" lengthAdjust="spacing" textLength="151" x="139" y="284.1714">void openBackPack() const</text><rect fill="#F24D5C" height="6" style="stroke:#C82930;stroke-width:1.0;" width="6" x="127" y="290.7656"/><text fill="#000000" font-family="sans-serif" font-size="11" lengthAdjust="spacing" textLength="190" x="139" y="296.9761">void prepareDodge(Hero *) const</text><line style="stroke:#A80036;stroke-width:1.0;" x1="120" x2="376" y1="303.5703" y2="303.5703"/><ellipse cx="130" cy="314.5703" fill="#84BE84" rx="3" ry="3" style="stroke:#038048;stroke-width:1.0;"/><text fill="#000000" font-family="sans-serif" font-size="11" lengthAdjust="spacing" textLength="97" x="139" y="317.7808">Battle() = delete</text><ellipse cx="130" cy="327.375" fill="#84BE84" rx="3" ry="3" style="stroke:#038048;stroke-width:1.0;"/><text fill="#000000" font-family="sans-serif" font-size="11" lengthAdjust="spacing" textLength="123" x="139" y="330.5854">Battle(Hero *, Hero *)</text><ellipse cx="130" cy="340.1797" fill="#84BE84" rx="3" ry="3" style="stroke:#038048;stroke-width:1.0;"/><text fill="#000000" font-family="sans-serif" font-size="11" font-style="italic" lengthAdjust="spacing" textLength="50" x="139" y="343.3901">~Battle()</text><line style="stroke:#A80036;stroke-width:1.0;stroke-dasharray:1.0,2.0;" x1="120" x2="376" y1="349.9844" y2="349.9844"/><ellipse cx="130" cy="360.9844" fill="#84BE84" rx="3" ry="3" style="stroke:#038048;stroke-width:1.0;"/><text fill="#000000" font-family="sans-serif" font-size="11" lengthAdjust="spacing" textLength="107" x="139" y="364.1948">Hero *getWinner();</text><!--MD5=[02f7077ed79257124e28b791f351f1d7]
class Direction--><rect codeLine="35" fill="#FEFECE" filter="url(#fja6fuvbeour0)" height="112.0234" id="Direction" style="stroke:#A80036;stroke-width:1.5;" width="86" x="7" y="590.5"/><ellipse cx="22" cy="606.5" fill="#EB937F" rx="11" ry="11" style="stroke:#A80036;stroke-width:1.0;"/><path d="M20.7969,607.375 L22.25,607.375 L22.25,607.4844 C22.25,607.8906 22.2813,608.0469 22.3594,608.2031 C22.5156,608.4531 22.7969,608.6094 23.0938,608.6094 C23.3438,608.6094 23.6094,608.4688 23.7656,608.25 C23.8906,608.0938 23.9219,607.9375 23.9219,607.4844 L23.9219,605.5625 C23.9219,605.4063 23.9219,605.3594 23.9063,605.2031 C23.8438,604.7344 23.5313,604.4219 23.0781,604.4219 C22.8281,604.4219 22.5625,604.5625 22.3906,604.7813 C22.2813,604.9531 22.25,605.1094 22.25,605.5625 L22.25,605.6875 L20.7969,605.6875 L20.7969,603.2813 L24.7813,603.2813 L24.7813,604.1406 C24.7813,604.5469 24.8125,604.7188 24.8906,604.875 C25.0625,605.125 25.3438,605.2813 25.625,605.2813 C25.8906,605.2813 26.1563,605.1406 26.3281,604.9219 C26.4375,604.75 26.4688,604.6094 26.4688,604.1406 L26.4688,601.5938 L18.8438,601.5938 C18.4063,601.5938 18.2813,601.6094 18.125,601.7031 C17.875,601.8594 17.7188,602.1563 17.7188,602.4375 C17.7188,602.7188 17.8594,602.9688 18.0781,603.1406 C18.2344,603.25 18.4219,603.2813 18.8438,603.2813 L19.0938,603.2813 L19.0938,609.7969 L18.8438,609.7969 C18.4375,609.7969 18.2813,609.8125 18.125,609.9219 C17.875,610.0938 17.7188,610.3594 17.7188,610.6563 C17.7188,610.9219 17.8594,611.1719 18.0781,611.3281 C18.2188,611.4531 18.4531,611.5 18.8438,611.5 L26.8438,611.5 L26.8438,608.9219 C26.8438,608.4844 26.8125,608.3438 26.7344,608.1875 C26.5625,607.9375 26.2813,607.7813 26,607.7813 C25.7344,607.7813 25.4688,607.8906 25.2969,608.1406 C25.1875,608.2969 25.1563,608.4375 25.1563,608.9219 L25.1563,609.7969 L20.7969,609.7969 L20.7969,607.375 Z " fill="#000000"/><text fill="#000000" font-family="sans-serif" font-size="12" lengthAdjust="spacing" textLength="54" x="36" y="610.6543">Direction</text><line style="stroke:#A80036;stroke-width:1.5;" x1="8" x2="92" y1="622.5" y2="622.5"/><text fill="#000000" font-family="sans-serif" font-size="11" lengthAdjust="spacing" textLength="18" x="13" y="636.7104">Up,</text><text fill="#000000" font-family="sans-serif" font-size="11" lengthAdjust="spacing" textLength="25" x="13" y="649.5151">Left,</text><text fill="#000000" font-family="sans-serif" font-size="11" lengthAdjust="spacing" textLength="35" x="13" y="662.3198">Down,</text><text fill="#000000" font-family="sans-serif" font-size="11" lengthAdjust="spacing" textLength="31" x="13" y="675.1245">Right,</text><text fill="#000000" font-family="sans-serif" font-size="11" lengthAdjust="spacing" textLength="50" x="13" y="687.9292">NotMove</text><line style="stroke:#A80036;stroke-width:1.5;" x1="8" x2="92" y1="694.5234" y2="694.5234"/><!--MD5=[f1b83358aad59401f92678a2dad2dc92]
class Winner--><rect codeLine="44" fill="#FEFECE" filter="url(#fja6fuvbeour0)" height="86.4141" id="Winner" style="stroke:#A80036;stroke-width:1.5;" width="74" x="128" y="603.5"/><ellipse cx="143" cy="619.5" fill="#EB937F" rx="11" ry="11" style="stroke:#A80036;stroke-width:1.0;"/><path d="M141.7969,620.375 L143.25,620.375 L143.25,620.4844 C143.25,620.8906 143.2813,621.0469 143.3594,621.2031 C143.5156,621.4531 143.7969,621.6094 144.0938,621.6094 C144.3438,621.6094 144.6094,621.4688 144.7656,621.25 C144.8906,621.0938 144.9219,620.9375 144.9219,620.4844 L144.9219,618.5625 C144.9219,618.4063 144.9219,618.3594 144.9063,618.2031 C144.8438,617.7344 144.5313,617.4219 144.0781,617.4219 C143.8281,617.4219 143.5625,617.5625 143.3906,617.7813 C143.2813,617.9531 143.25,618.1094 143.25,618.5625 L143.25,618.6875 L141.7969,618.6875 L141.7969,616.2813 L145.7813,616.2813 L145.7813,617.1406 C145.7813,617.5469 145.8125,617.7188 145.8906,617.875 C146.0625,618.125 146.3438,618.2813 146.625,618.2813 C146.8906,618.2813 147.1563,618.1406 147.3281,617.9219 C147.4375,617.75 147.4688,617.6094 147.4688,617.1406 L147.4688,614.5938 L139.8438,614.5938 C139.4063,614.5938 139.2813,614.6094 139.125,614.7031 C138.875,614.8594 138.7188,615.1563 138.7188,615.4375 C138.7188,615.7188 138.8594,615.9688 139.0781,616.1406 C139.2344,616.25 139.4219,616.2813 139.8438,616.2813 L140.0938,616.2813 L140.0938,622.7969 L139.8438,622.7969 C139.4375,622.7969 139.2813,622.8125 139.125,622.9219 C138.875,623.0938 138.7188,623.3594 138.7188,623.6563 C138.7188,623.9219 138.8594,624.1719 139.0781,624.3281 C139.2188,624.4531 139.4531,624.5 139.8438,624.5 L147.8438,624.5 L147.8438,621.9219 C147.8438,621.4844 147.8125,621.3438 147.7344,621.1875 C147.5625,620.9375 147.2813,620.7813 147,620.7813 C146.7344,620.7813 146.4688,620.8906 146.2969,621.1406 C146.1875,621.2969 146.1563,621.4375 146.1563,621.9219 L146.1563,622.7969 L141.7969,622.7969 L141.7969,620.375 Z " fill="#000000"/><text fill="#000000" font-family="sans-serif" font-size="12" lengthAdjust="spacing" textLength="42" x="157" y="623.6543">Winner</text><line style="stroke:#A80036;stroke-width:1.5;" x1="129" x2="201" y1="635.5" y2="635.5"/><text fill="#000000" font-family="sans-serif" font-size="11" lengthAdjust="spacing" textLength="38" x="134" y="649.7104">Player,</text><text fill="#000000" font-family="sans-serif" font-size="11" lengthAdjust="spacing" textLength="59" x="134" y="662.5151">Opponent,</text><text fill="#000000" font-family="sans-serif" font-size="11" lengthAdjust="spacing" textLength="30" x="134" y="675.3198">None</text><line style="stroke:#A80036;stroke-width:1.5;" x1="129" x2="201" y1="681.9141" y2="681.9141"/><!--MD5=[b6dcce5e5ef3c84b0b048d11301373dd]
class Game--><rect codeLine="51" fill="#FEFECE" filter="url(#fja6fuvbeour0)" height="412.1172" id="Game" style="stroke:#A80036;stroke-width:1.5;" width="285" x="412.5" y="7"/><ellipse cx="533.25" cy="23" fill="#ADD1B2" rx="11" ry="11" style="stroke:#A80036;stroke-width:1.0;"/><path d="M535.5938,18.6719 C534.6563,18.2344 534.0625,18.0938 533.1875,18.0938 C530.5625,18.0938 528.5625,20.1719 528.5625,22.8906 L528.5625,24.0156 C528.5625,26.5938 530.6719,28.4844 533.5625,28.4844 C534.7813,28.4844 535.9375,28.1875 536.6875,27.6406 C537.2656,27.2344 537.5938,26.7813 537.5938,26.3906 C537.5938,25.9375 537.2031,25.5469 536.7344,25.5469 C536.5156,25.5469 536.3125,25.625 536.125,25.8125 C535.6719,26.2969 535.6719,26.2969 535.4844,26.3906 C535.0625,26.6563 534.375,26.7813 533.6094,26.7813 C531.5625,26.7813 530.2656,25.6875 530.2656,23.9844 L530.2656,22.8906 C530.2656,21.1094 531.5156,19.7969 533.25,19.7969 C533.8281,19.7969 534.4375,19.9531 534.9063,20.2031 C535.3906,20.4844 535.5625,20.7031 535.6563,21.1094 C535.7188,21.5156 535.75,21.6406 535.8906,21.7656 C536.0313,21.9063 536.2656,22.0156 536.4844,22.0156 C536.75,22.0156 537.0156,21.875 537.1875,21.6563 C537.2969,21.5 537.3281,21.3125 537.3281,20.8906 L537.3281,19.4688 C537.3281,19.0313 537.3125,18.9063 537.2188,18.75 C537.0625,18.4844 536.7813,18.3438 536.4844,18.3438 C536.1875,18.3438 535.9844,18.4375 535.7656,18.75 L535.5938,18.6719 Z " fill="#000000"/><text fill="#000000" font-family="sans-serif" font-size="12" lengthAdjust="spacing" textLength="35" x="553.75" y="27.1543">Game</text><line style="stroke:#A80036;stroke-width:1.5;" x1="413.5" x2="696.5" y1="39" y2="39"/><rect fill="none" height="6" style="stroke:#C82930;stroke-width:1.0;" width="6" x="420.5" y="47"/><text fill="#000000" font-family="sans-serif" font-size="11" lengthAdjust="spacing" textLength="90" x="432.5" y="53.2104">Map currentMap</text><rect fill="none" height="6" style="stroke:#C82930;stroke-width:1.0;" width="6" x="420.5" y="59.8047"/><text fill="#000000" font-family="sans-serif" font-size="11" lengthAdjust="spacing" textLength="94" x="432.5" y="66.0151">int nbOpponents</text><rect fill="none" height="6" style="stroke:#C82930;stroke-width:1.0;" width="6" x="420.5" y="72.6094"/><text fill="#000000" font-family="sans-serif" font-size="11" lengthAdjust="spacing" textLength="72" x="432.5" y="78.8198">int nbPotions</text><rect fill="none" height="6" style="stroke:#C82930;stroke-width:1.0;" width="6" x="420.5" y="85.4141"/><text fill="#000000" font-family="sans-serif" font-size="11" lengthAdjust="spacing" textLength="77" x="432.5" y="91.6245">bool isPlaying</text><line style="stroke:#A80036;stroke-width:1.0;stroke-dasharray:1.0,2.0;" x1="413.5" x2="696.5" y1="98.2188" y2="98.2188"/><rect fill="none" height="6" style="stroke:#C82930;stroke-width:1.0;" width="6" x="420.5" y="106.2188"/><text fill="#000000" font-family="sans-serif" font-size="11" lengthAdjust="spacing" textLength="73" x="432.5" y="112.4292">Hero *player</text><rect fill="none" height="6" style="stroke:#C82930;stroke-width:1.0;" width="6" x="420.5" y="119.0234"/><text fill="#000000" font-family="sans-serif" font-size="11" lengthAdjust="spacing" textLength="173" x="432.5" y="125.2339">vector&lt;Hero *&gt; listOpponents</text><rect fill="none" height="6" style="stroke:#C82930;stroke-width:1.0;" width="6" x="420.5" y="131.8281"/><text fill="#000000" font-family="sans-serif" font-size="11" lengthAdjust="spacing" textLength="158" x="432.5" y="138.0386">vector&lt;Potion *&gt; listPotions</text><line style="stroke:#A80036;stroke-width:1.0;stroke-dasharray:1.0,2.0;" x1="413.5" x2="696.5" y1="144.6328" y2="144.6328"/><rect fill="none" height="6" style="stroke:#C82930;stroke-width:1.0;" width="6" x="420.5" y="152.6328"/><text fill="#000000" font-family="sans-serif" font-size="11" lengthAdjust="spacing" textLength="91" x="432.5" y="158.8433">Winner gWinner</text><line style="stroke:#A80036;stroke-width:1.0;stroke-dasharray:1.0,2.0;" x1="413.5" x2="696.5" y1="165.4375" y2="165.4375"/><rect fill="#F24D5C" height="6" style="stroke:#C82930;stroke-width:1.0;" width="6" x="420.5" y="173.4375"/><text fill="#000000" font-family="sans-serif" font-size="11" lengthAdjust="spacing" textLength="154" x="432.5" y="179.6479">bool checkFight(char) const</text><rect fill="#F24D5C" height="6" style="stroke:#C82930;stroke-width:1.0;" width="6" x="420.5" y="186.2422"/><text fill="#000000" font-family="sans-serif" font-size="11" lengthAdjust="spacing" textLength="259" x="432.5" y="192.4526">bool checkMovement(Direction, Hero *) const</text><line style="stroke:#A80036;stroke-width:1.0;stroke-dasharray:1.0,2.0;" x1="413.5" x2="696.5" y1="199.0469" y2="199.0469"/><rect fill="#F24D5C" height="6" style="stroke:#C82930;stroke-width:1.0;" width="6" x="420.5" y="207.0469"/><text fill="#000000" font-family="sans-serif" font-size="11" lengthAdjust="spacing" textLength="162" x="432.5" y="213.2573">void applyFight(char, Hero *)</text><rect fill="#F24D5C" height="6" style="stroke:#C82930;stroke-width:1.0;" width="6" x="420.5" y="219.8516"/><text fill="#000000" font-family="sans-serif" font-size="11" lengthAdjust="spacing" textLength="179" x="432.5" y="226.062">void applyMovement(Direction)</text><rect fill="#F24D5C" height="6" style="stroke:#C82930;stroke-width:1.0;" width="6" x="420.5" y="232.6563"/><text fill="#000000" font-family="sans-serif" font-size="11" lengthAdjust="spacing" textLength="157" x="432.5" y="238.8667">void catchPotion(int x, int y)</text><rect fill="#F24D5C" height="6" style="stroke:#C82930;stroke-width:1.0;" width="6" x="420.5" y="245.4609"/><text fill="#000000" font-family="sans-serif" font-size="11" lengthAdjust="spacing" textLength="110" x="432.5" y="251.6714">void display() const</text><rect fill="#F24D5C" height="6" style="stroke:#C82930;stroke-width:1.0;" width="6" x="420.5" y="258.2656"/><text fill="#000000" font-family="sans-serif" font-size="11" lengthAdjust="spacing" textLength="103" x="432.5" y="264.4761">void setPositions()</text><line style="stroke:#A80036;stroke-width:1.0;" x1="413.5" x2="696.5" y1="271.0703" y2="271.0703"/><ellipse cx="423.5" cy="282.0703" fill="#84BE84" rx="3" ry="3" style="stroke:#038048;stroke-width:1.0;"/><text fill="#000000" font-family="sans-serif" font-size="11" lengthAdjust="spacing" textLength="43" x="432.5" y="285.2808">Game()</text><ellipse cx="423.5" cy="294.875" fill="#84BE84" rx="3" ry="3" style="stroke:#038048;stroke-width:1.0;"/><text fill="#000000" font-family="sans-serif" font-size="11" lengthAdjust="spacing" textLength="199" x="432.5" y="298.0854">Game(width, height, nbOpponents)</text><ellipse cx="423.5" cy="307.6797" fill="#84BE84" rx="3" ry="3" style="stroke:#038048;stroke-width:1.0;"/><text fill="#000000" font-family="sans-serif" font-size="11" font-style="italic" lengthAdjust="spacing" textLength="51" x="432.5" y="310.8901">~Game()</text><ellipse cx="423.5" cy="337.2891" fill="#84BE84" rx="3" ry="3" style="stroke:#038048;stroke-width:1.0;"/><text fill="#000000" font-family="sans-serif" font-size="11" lengthAdjust="spacing" textLength="111" x="432.5" y="340.4995">Map getMap() const</text><ellipse cx="423.5" cy="350.0938" fill="#84BE84" rx="3" ry="3" style="stroke:#038048;stroke-width:1.0;"/><text fill="#000000" font-family="sans-serif" font-size="11" lengthAdjust="spacing" textLength="218" x="432.5" y="353.3042">vector&lt;Hero *&gt; getOpponents() const</text><line style="stroke:#A80036;stroke-width:1.0;stroke-dasharray:1.0,2.0;" x1="413.5" x2="533.5" y1="323.8867" y2="323.8867"/><text fill="#000000" font-family="sans-serif" font-size="11" lengthAdjust="spacing" textLength="43" x="533.5" y="327.1948">Getters</text><line style="stroke:#A80036;stroke-width:1.0;stroke-dasharray:1.0,2.0;" x1="576.5" x2="696.5" y1="323.8867" y2="323.8867"/><line style="stroke:#A80036;stroke-width:1.0;stroke-dasharray:1.0,2.0;" x1="413.5" x2="696.5" y1="359.8984" y2="359.8984"/><ellipse cx="423.5" cy="370.8984" fill="#84BE84" rx="3" ry="3" style="stroke:#038048;stroke-width:1.0;"/><text fill="#000000" font-family="sans-serif" font-size="11" lengthAdjust="spacing" textLength="145" x="432.5" y="374.1089">void choosePlayer(name)</text><ellipse cx="423.5" cy="383.7031" fill="#84BE84" rx="3" ry="3" style="stroke:#038048;stroke-width:1.0;"/><text fill="#000000" font-family="sans-serif" font-size="11" lengthAdjust="spacing" textLength="92" x="432.5" y="386.9136">void end() const</text><ellipse cx="423.5" cy="396.5078" fill="#84BE84" rx="3" ry="3" style="stroke:#038048;stroke-width:1.0;"/><text fill="#000000" font-family="sans-serif" font-size="11" lengthAdjust="spacing" textLength="84" x="432.5" y="399.7183">void initialize()</text><ellipse cx="423.5" cy="409.3125" fill="#84BE84" rx="3" ry="3" style="stroke:#038048;stroke-width:1.0;"/><text fill="#000000" font-family="sans-serif" font-size="11" lengthAdjust="spacing" textLength="60" x="432.5" y="412.5229">void play()</text><!--MD5=[4dfc6a72b8dd60daa1b635d583ff79da]
class Map--><rect codeLine="87" fill="#FEFECE" filter="url(#fja6fuvbeour0)" height="335.2891" id="Map" style="stroke:#A80036;stroke-width:1.5;" width="379" x="365.5" y="479"/><ellipse cx="538.25" cy="495" fill="#ADD1B2" rx="11" ry="11" style="stroke:#A80036;stroke-width:1.0;"/><path d="M540.5938,490.6719 C539.6563,490.2344 539.0625,490.0938 538.1875,490.0938 C535.5625,490.0938 533.5625,492.1719 533.5625,494.8906 L533.5625,496.0156 C533.5625,498.5938 535.6719,500.4844 538.5625,500.4844 C539.7813,500.4844 540.9375,500.1875 541.6875,499.6406 C542.2656,499.2344 542.5938,498.7813 542.5938,498.3906 C542.5938,497.9375 542.2031,497.5469 541.7344,497.5469 C541.5156,497.5469 541.3125,497.625 541.125,497.8125 C540.6719,498.2969 540.6719,498.2969 540.4844,498.3906 C540.0625,498.6563 539.375,498.7813 538.6094,498.7813 C536.5625,498.7813 535.2656,497.6875 535.2656,495.9844 L535.2656,494.8906 C535.2656,493.1094 536.5156,491.7969 538.25,491.7969 C538.8281,491.7969 539.4375,491.9531 539.9063,492.2031 C540.3906,492.4844 540.5625,492.7031 540.6563,493.1094 C540.7188,493.5156 540.75,493.6406 540.8906,493.7656 C541.0313,493.9063 541.2656,494.0156 541.4844,494.0156 C541.75,494.0156 542.0156,493.875 542.1875,493.6563 C542.2969,493.5 542.3281,493.3125 542.3281,492.8906 L542.3281,491.4688 C542.3281,491.0313 542.3125,490.9063 542.2188,490.75 C542.0625,490.4844 541.7813,490.3438 541.4844,490.3438 C541.1875,490.3438 540.9844,490.4375 540.7656,490.75 L540.5938,490.6719 Z " fill="#000000"/><text fill="#000000" font-family="sans-serif" font-size="12" lengthAdjust="spacing" textLength="25" x="558.75" y="499.1543">Map</text><line style="stroke:#A80036;stroke-width:1.5;" x1="366.5" x2="743.5" y1="511" y2="511"/><rect fill="none" height="6" style="stroke:#C82930;stroke-width:1.0;" width="6" x="373.5" y="519"/><text fill="#000000" font-family="sans-serif" font-size="11" lengthAdjust="spacing" textLength="48" x="385.5" y="525.2104">int width</text><rect fill="none" height="6" style="stroke:#C82930;stroke-width:1.0;" width="6" x="373.5" y="531.8047"/><text fill="#000000" font-family="sans-serif" font-size="11" lengthAdjust="spacing" textLength="54" x="385.5" y="538.0151">int height</text><line style="stroke:#A80036;stroke-width:1.0;stroke-dasharray:1.0,2.0;" x1="366.5" x2="743.5" y1="544.6094" y2="544.6094"/><rect fill="none" height="6" style="stroke:#C82930;stroke-width:1.0;" width="6" x="373.5" y="552.6094"/><text fill="#000000" font-family="sans-serif" font-size="11" lengthAdjust="spacing" textLength="234" x="385.5" y="558.8198">map&lt;Hero *, Coordinates&gt; heroPositions</text><rect fill="none" height="6" style="stroke:#C82930;stroke-width:1.0;" width="6" x="373.5" y="565.4141"/><text fill="#000000" font-family="sans-serif" font-size="11" lengthAdjust="spacing" textLength="250" x="385.5" y="571.6245">map&lt;Potion *, Coordinates&gt; potionPositions</text><line style="stroke:#A80036;stroke-width:1.0;" x1="366.5" x2="743.5" y1="578.2188" y2="578.2188"/><ellipse cx="376.5" cy="589.2188" fill="#84BE84" rx="3" ry="3" style="stroke:#038048;stroke-width:1.0;"/><text fill="#000000" font-family="sans-serif" font-size="11" lengthAdjust="spacing" textLength="88" x="385.5" y="592.4292">Map() = default</text><ellipse cx="376.5" cy="602.0234" fill="#84BE84" rx="3" ry="3" style="stroke:#038048;stroke-width:1.0;"/><text fill="#000000" font-family="sans-serif" font-size="11" lengthAdjust="spacing" textLength="104" x="385.5" y="605.2339">Map(width, height)</text><ellipse cx="376.5" cy="614.8281" fill="#84BE84" rx="3" ry="3" style="stroke:#038048;stroke-width:1.0;"/><text fill="#000000" font-family="sans-serif" font-size="11" font-style="italic" lengthAdjust="spacing" textLength="40" x="385.5" y="618.0386">~Map()</text><ellipse cx="376.5" cy="644.4375" fill="#84BE84" rx="3" ry="3" style="stroke:#038048;stroke-width:1.0;"/><text fill="#000000" font-family="sans-serif" font-size="11" lengthAdjust="spacing" textLength="111" x="385.5" y="647.6479">int getWidth() const</text><ellipse cx="376.5" cy="657.2422" fill="#84BE84" rx="3" ry="3" style="stroke:#038048;stroke-width:1.0;"/><text fill="#000000" font-family="sans-serif" font-size="11" lengthAdjust="spacing" textLength="116" x="385.5" y="660.4526">int getHeight() const</text><line style="stroke:#A80036;stroke-width:1.0;stroke-dasharray:1.0,2.0;" x1="366.5" x2="533.5" y1="631.0352" y2="631.0352"/><text fill="#000000" font-family="sans-serif" font-size="11" lengthAdjust="spacing" textLength="43" x="533.5" y="634.3433">Getters</text><line style="stroke:#A80036;stroke-width:1.0;stroke-dasharray:1.0,2.0;" x1="576.5" x2="743.5" y1="631.0352" y2="631.0352"/><line style="stroke:#A80036;stroke-width:1.0;stroke-dasharray:1.0,2.0;" x1="366.5" x2="743.5" y1="667.0469" y2="667.0469"/><ellipse cx="376.5" cy="678.0469" fill="#84BE84" rx="3" ry="3" style="stroke:#038048;stroke-width:1.0;"/><text fill="#000000" font-family="sans-serif" font-size="11" lengthAdjust="spacing" textLength="165" x="385.5" y="681.2573">bool isCaseEmpty(x, y) const</text><ellipse cx="376.5" cy="690.8516" fill="#84BE84" rx="3" ry="3" style="stroke:#038048;stroke-width:1.0;"/><text fill="#000000" font-family="sans-serif" font-size="11" lengthAdjust="spacing" textLength="183" x="385.5" y="694.062">bool isOpponentNear(x, y) const</text><line style="stroke:#A80036;stroke-width:1.0;stroke-dasharray:1.0,2.0;" x1="366.5" x2="743.5" y1="700.6563" y2="700.6563"/><ellipse cx="376.5" cy="711.6563" fill="#84BE84" rx="3" ry="3" style="stroke:#038048;stroke-width:1.0;"/><text fill="#000000" font-family="sans-serif" font-size="11" lengthAdjust="spacing" textLength="202" x="385.5" y="714.8667">Hero *getOpponentNear(x, y) const</text><ellipse cx="376.5" cy="724.4609" fill="#84BE84" rx="3" ry="3" style="stroke:#038048;stroke-width:1.0;"/><text fill="#000000" font-family="sans-serif" font-size="11" lengthAdjust="spacing" textLength="132" x="385.5" y="727.6714">Hero *whoIs(x, y) const</text><ellipse cx="376.5" cy="737.2656" fill="#84BE84" rx="3" ry="3" style="stroke:#038048;stroke-width:1.0;"/><text fill="#000000" font-family="sans-serif" font-size="11" lengthAdjust="spacing" textLength="148" x="385.5" y="740.4761">Potion *whichIs(x, y) const</text><line style="stroke:#A80036;stroke-width:1.0;stroke-dasharray:1.0,2.0;" x1="366.5" x2="743.5" y1="747.0703" y2="747.0703"/><ellipse cx="376.5" cy="758.0703" fill="#84BE84" rx="3" ry="3" style="stroke:#038048;stroke-width:1.0;"/><text fill="#000000" font-family="sans-serif" font-size="11" lengthAdjust="spacing" textLength="353" x="385.5" y="761.2808">void display(Hero &amp;, vector&lt;Hero *&gt;, vector&lt;Potion *&gt;) const</text><ellipse cx="376.5" cy="770.875" fill="#84BE84" rx="3" ry="3" style="stroke:#038048;stroke-width:1.0;"/><text fill="#000000" font-family="sans-serif" font-size="11" lengthAdjust="spacing" textLength="174" x="385.5" y="774.0854">void update(vector&lt;Potion *&gt;)</text><ellipse cx="376.5" cy="783.6797" fill="#84BE84" rx="3" ry="3" style="stroke:#038048;stroke-width:1.0;"/><text fill="#000000" font-family="sans-serif" font-size="11" lengthAdjust="spacing" textLength="167" x="385.5" y="786.8901">void update(vector&lt;Hero *&gt;)</text><line style="stroke:#A80036;stroke-width:1.0;stroke-dasharray:1.0,2.0;" x1="366.5" x2="743.5" y1="793.4844" y2="793.4844"/><ellipse cx="376.5" cy="804.4844" fill="#84BE84" rx="3" ry="3" style="stroke:#038048;stroke-width:1.0;"/><text fill="#000000" font-family="sans-serif" font-size="11" lengthAdjust="spacing" textLength="155" x="385.5" y="807.6948">WhatMap whatIs(x, y) const</text><!--MD5=[8b8164a9f3e706b3caf90714a28db3cb]
reverse link Game to Map--><path codeLine="117" d="M555,432.148 C555,447.793 555,463.422 555,478.705 " fill="none" id="Game-backto-Map" style="stroke:#A80036;stroke-width:1.0;"/><polygon fill="#FFFFFF" points="555,419.009,551,425.009,555,431.009,559,425.009,555,419.009" style="stroke:#A80036;stroke-width:1.0;"/><!--MD5=[36281350a22fae8fc0ad5f8c8546a215]
link Turn to Battle--><!--MD5=[e2ba9dfb4758e86021db915917b5bef0]
link Turn to Direction--><!--MD5=[a53a18d4daaa22b47b186437297d0ce9]
link Direction to Winner--><!--MD5=[c20a328bd13147a84dcd7f7eacf863fc]
@startuml
enum Turn
    {
        Player,
        Opponent
    }

    class Battle
    {
        -bool isOver
        -Hero *player
        -Hero *opponent
        -Turn turn
        -Turn winner
        ..
        -bool checkNumber(range, number) const
        -bool checkYesNo(yesNo) const
        ..
        -void display() const
        -void nextTurn()
        -void playerTurn()
        -void opponentTurn()
        -void concede()
        -void fight(Hero *, Hero *)
        -void openBackPack() const
        -void prepareDodge(Hero *) const
        - -
        +Battle() = delete
        +Battle(Hero *, Hero *)
        +{abstract} ~Battle()
        ..
        +Hero *getWinner();
    }


    enum Direction
    {
        Up,
        Left,
        Down,
        Right,
        NotMove
    }

    enum Winner
    {
        Player,
        Opponent,
        None
    }

    class Game
    {
        -Map currentMap
        -int nbOpponents
        -int nbPotions
        -bool isPlaying
        ..
        -Hero *player
        -vector<Hero *> listOpponents
        -vector<Potion *> listPotions
        ..
        -Winner gWinner
        ..
        -bool checkFight(char) const
        -bool checkMovement(Direction, Hero *) const
        ..
        -void applyFight(char, Hero *)
        -void applyMovement(Direction)
        -void catchPotion(int x, int y)
        -void display() const
        -void setPositions()
        - -
        +Game()
        +Game(width, height, nbOpponents)
        +{abstract} ~Game()
        .. Getters ..
        +Map getMap() const
        +vector<Hero *> getOpponents() const
        ..
        +void choosePlayer(name)
        +void end() const
        +void initialize()
        +void play()
    }


    class Map
    {
        -int width
        -int height
        ..
        -map<Hero *, Coordinates> heroPositions
        -map<Potion *, Coordinates> potionPositions
        - -
        +Map() = default
        +Map(width, height)
        +{abstract} ~Map()
        .. Getters ..
        +int getWidth() const
        +int getHeight() const
        ..
        +bool isCaseEmpty(x, y) const
        +bool isOpponentNear(x, y) const
        ..
        +Hero *getOpponentNear(x, y) const
        +Hero *whoIs(x, y) const
        +Potion *whichIs(x, y) const
        ..
        +void display(Hero &, vector<Hero *>, vector<Potion *>) const
        +void update(vector<Potion *>)
        +void update(vector<Hero *>)
        ..
        +WhatMap whatIs(x, y) const
    }


    Game o- - Map
@enduml

PlantUML version 1.2021.7(Sun May 23 12:40:07 UTC 2021)
(GPL source distribution)
Java Runtime: Java(TM) SE Runtime Environment
JVM: Java HotSpot(TM) 64-Bit Server VM
Default Encoding: UTF-8
Language: en
Country: US
--></g></svg>