<?xml version="1.0" encoding="UTF-8" standalone="no"?>
<svg xmlns="http://www.w3.org/2000/svg" xmlns:xlink="http://www.w3.org/1999/xlink" contentScriptType="application/ecmascript" contentStyleType="text/css" height="501px" preserveAspectRatio="none" style="width:863px;height:501px;background:transparent;" version="1.1" viewBox="0 0 863 501" width="863px" zoomAndPan="magnify"><defs><filter height="300%" id="f92uyw7rxtkzq" width="300%" x="-1" y="-1"><feGaussianBlur result="blurOut" stdDeviation="2.0"/><feColorMatrix in="blurOut" result="blurOut2" type="matrix" values="0 0 0 0 0 0 0 0 0 0 0 0 0 0 0 0 0 0 .4 0"/><feOffset dx="4.0" dy="4.0" in="blurOut2" result="blurOut3"/><feBlend in="SourceGraphic" in2="blurOut3" mode="normal"/></filter></defs><g><!--MD5=[b6dcce5e5ef3c84b0b048d11301373dd]
class Game--><rect fill="#FEFECE" filter="url(#f92uyw7rxtkzq)" height="48" id="Game" style="stroke:#A80036;stroke-width:1.5;" width="67" x="379" y="7"/><ellipse cx="394" cy="23" fill="#ADD1B2" rx="11" ry="11" style="stroke:#A80036;stroke-width:1.0;"/><path d="M396.3438,18.6719 C395.4063,18.2344 394.8125,18.0938 393.9375,18.0938 C391.3125,18.0938 389.3125,20.1719 389.3125,22.8906 L389.3125,24.0156 C389.3125,26.5938 391.4219,28.4844 394.3125,28.4844 C395.5313,28.4844 396.6875,28.1875 397.4375,27.6406 C398.0156,27.2344 398.3438,26.7813 398.3438,26.3906 C398.3438,25.9375 397.9531,25.5469 397.4844,25.5469 C397.2656,25.5469 397.0625,25.625 396.875,25.8125 C396.4219,26.2969 396.4219,26.2969 396.2344,26.3906 C395.8125,26.6563 395.125,26.7813 394.3594,26.7813 C392.3125,26.7813 391.0156,25.6875 391.0156,23.9844 L391.0156,22.8906 C391.0156,21.1094 392.2656,19.7969 394,19.7969 C394.5781,19.7969 395.1875,19.9531 395.6563,20.2031 C396.1406,20.4844 396.3125,20.7031 396.4063,21.1094 C396.4688,21.5156 396.5,21.6406 396.6406,21.7656 C396.7813,21.9063 397.0156,22.0156 397.2344,22.0156 C397.5,22.0156 397.7656,21.875 397.9375,21.6563 C398.0469,21.5 398.0781,21.3125 398.0781,20.8906 L398.0781,19.4688 C398.0781,19.0313 398.0625,18.9063 397.9688,18.75 C397.8125,18.4844 397.5313,18.3438 397.2344,18.3438 C396.9375,18.3438 396.7344,18.4375 396.5156,18.75 L396.3438,18.6719 Z " fill="#000000"/><text fill="#000000" font-family="sans-serif" font-size="12" lengthAdjust="spacing" textLength="35" x="408" y="27.1543">Game</text><line style="stroke:#A80036;stroke-width:1.5;" x1="380" x2="445" y1="39" y2="39"/><line style="stroke:#A80036;stroke-width:1.5;" x1="380" x2="445" y1="47" y2="47"/><!--MD5=[666ab4d123c8a4db535fefed801ea066]
class Hero--><rect fill="#FEFECE" filter="url(#f92uyw7rxtkzq)" height="48" id="Hero" style="stroke:#A80036;stroke-width:1.5;" width="62" x="334.5" y="115"/><ellipse cx="349.5" cy="131" fill="#ADD1B2" rx="11" ry="11" style="stroke:#A80036;stroke-width:1.0;"/><path d="M351.8438,126.6719 C350.9063,126.2344 350.3125,126.0938 349.4375,126.0938 C346.8125,126.0938 344.8125,128.1719 344.8125,130.8906 L344.8125,132.0156 C344.8125,134.5938 346.9219,136.4844 349.8125,136.4844 C351.0313,136.4844 352.1875,136.1875 352.9375,135.6406 C353.5156,135.2344 353.8438,134.7813 353.8438,134.3906 C353.8438,133.9375 353.4531,133.5469 352.9844,133.5469 C352.7656,133.5469 352.5625,133.625 352.375,133.8125 C351.9219,134.2969 351.9219,134.2969 351.7344,134.3906 C351.3125,134.6563 350.625,134.7813 349.8594,134.7813 C347.8125,134.7813 346.5156,133.6875 346.5156,131.9844 L346.5156,130.8906 C346.5156,129.1094 347.7656,127.7969 349.5,127.7969 C350.0781,127.7969 350.6875,127.9531 351.1563,128.2031 C351.6406,128.4844 351.8125,128.7031 351.9063,129.1094 C351.9688,129.5156 352,129.6406 352.1406,129.7656 C352.2813,129.9063 352.5156,130.0156 352.7344,130.0156 C353,130.0156 353.2656,129.875 353.4375,129.6563 C353.5469,129.5 353.5781,129.3125 353.5781,128.8906 L353.5781,127.4688 C353.5781,127.0313 353.5625,126.9063 353.4688,126.75 C353.3125,126.4844 353.0313,126.3438 352.7344,126.3438 C352.4375,126.3438 352.2344,126.4375 352.0156,126.75 L351.8438,126.6719 Z " fill="#000000"/><text fill="#000000" font-family="sans-serif" font-size="12" lengthAdjust="spacing" textLength="30" x="363.5" y="135.1543">Hero</text><line style="stroke:#A80036;stroke-width:1.5;" x1="335.5" x2="395.5" y1="147" y2="147"/><line style="stroke:#A80036;stroke-width:1.5;" x1="335.5" x2="395.5" y1="155" y2="155"/><!--MD5=[4dfc6a72b8dd60daa1b635d583ff79da]
class Map--><rect fill="#FEFECE" filter="url(#f92uyw7rxtkzq)" height="48" id="Map" style="stroke:#A80036;stroke-width:1.5;" width="57" x="432" y="115"/><ellipse cx="447" cy="131" fill="#ADD1B2" rx="11" ry="11" style="stroke:#A80036;stroke-width:1.0;"/><path d="M449.3438,126.6719 C448.4063,126.2344 447.8125,126.0938 446.9375,126.0938 C444.3125,126.0938 442.3125,128.1719 442.3125,130.8906 L442.3125,132.0156 C442.3125,134.5938 444.4219,136.4844 447.3125,136.4844 C448.5313,136.4844 449.6875,136.1875 450.4375,135.6406 C451.0156,135.2344 451.3438,134.7813 451.3438,134.3906 C451.3438,133.9375 450.9531,133.5469 450.4844,133.5469 C450.2656,133.5469 450.0625,133.625 449.875,133.8125 C449.4219,134.2969 449.4219,134.2969 449.2344,134.3906 C448.8125,134.6563 448.125,134.7813 447.3594,134.7813 C445.3125,134.7813 444.0156,133.6875 444.0156,131.9844 L444.0156,130.8906 C444.0156,129.1094 445.2656,127.7969 447,127.7969 C447.5781,127.7969 448.1875,127.9531 448.6563,128.2031 C449.1406,128.4844 449.3125,128.7031 449.4063,129.1094 C449.4688,129.5156 449.5,129.6406 449.6406,129.7656 C449.7813,129.9063 450.0156,130.0156 450.2344,130.0156 C450.5,130.0156 450.7656,129.875 450.9375,129.6563 C451.0469,129.5 451.0781,129.3125 451.0781,128.8906 L451.0781,127.4688 C451.0781,127.0313 451.0625,126.9063 450.9688,126.75 C450.8125,126.4844 450.5313,126.3438 450.2344,126.3438 C449.9375,126.3438 449.7344,126.4375 449.5156,126.75 L449.3438,126.6719 Z " fill="#000000"/><text fill="#000000" font-family="sans-serif" font-size="12" lengthAdjust="spacing" textLength="25" x="461" y="135.1543">Map</text><line style="stroke:#A80036;stroke-width:1.5;" x1="433" x2="488" y1="147" y2="147"/><line style="stroke:#A80036;stroke-width:1.5;" x1="433" x2="488" y1="155" y2="155"/><!--MD5=[2cb47ba637a0d19583e6199456f6ad0b]
class Player--><rect fill="#FEFECE" filter="url(#f92uyw7rxtkzq)" height="48" id="Player" style="stroke:#A80036;stroke-width:1.5;" width="68" x="122.5" y="223"/><ellipse cx="137.5" cy="239" fill="#ADD1B2" rx="11" ry="11" style="stroke:#A80036;stroke-width:1.0;"/><path d="M139.8438,234.6719 C138.9063,234.2344 138.3125,234.0938 137.4375,234.0938 C134.8125,234.0938 132.8125,236.1719 132.8125,238.8906 L132.8125,240.0156 C132.8125,242.5938 134.9219,244.4844 137.8125,244.4844 C139.0313,244.4844 140.1875,244.1875 140.9375,243.6406 C141.5156,243.2344 141.8438,242.7813 141.8438,242.3906 C141.8438,241.9375 141.4531,241.5469 140.9844,241.5469 C140.7656,241.5469 140.5625,241.625 140.375,241.8125 C139.9219,242.2969 139.9219,242.2969 139.7344,242.3906 C139.3125,242.6563 138.625,242.7813 137.8594,242.7813 C135.8125,242.7813 134.5156,241.6875 134.5156,239.9844 L134.5156,238.8906 C134.5156,237.1094 135.7656,235.7969 137.5,235.7969 C138.0781,235.7969 138.6875,235.9531 139.1563,236.2031 C139.6406,236.4844 139.8125,236.7031 139.9063,237.1094 C139.9688,237.5156 140,237.6406 140.1406,237.7656 C140.2813,237.9063 140.5156,238.0156 140.7344,238.0156 C141,238.0156 141.2656,237.875 141.4375,237.6563 C141.5469,237.5 141.5781,237.3125 141.5781,236.8906 L141.5781,235.4688 C141.5781,235.0313 141.5625,234.9063 141.4688,234.75 C141.3125,234.4844 141.0313,234.3438 140.7344,234.3438 C140.4375,234.3438 140.2344,234.4375 140.0156,234.75 L139.8438,234.6719 Z " fill="#000000"/><text fill="#000000" font-family="sans-serif" font-size="12" lengthAdjust="spacing" textLength="36" x="151.5" y="243.1543">Player</text><line style="stroke:#A80036;stroke-width:1.5;" x1="123.5" x2="189.5" y1="255" y2="255"/><line style="stroke:#A80036;stroke-width:1.5;" x1="123.5" x2="189.5" y1="263" y2="263"/><!--MD5=[d70edc47cf428b1ea0b45e83bb17deed]
class Opponent--><rect fill="#FEFECE" filter="url(#f92uyw7rxtkzq)" height="48" id="Opponent" style="stroke:#A80036;stroke-width:1.5;" width="92" x="319.5" y="223"/><ellipse cx="334.5" cy="239" fill="#ADD1B2" rx="11" ry="11" style="stroke:#A80036;stroke-width:1.0;"/><path d="M336.8438,234.6719 C335.9063,234.2344 335.3125,234.0938 334.4375,234.0938 C331.8125,234.0938 329.8125,236.1719 329.8125,238.8906 L329.8125,240.0156 C329.8125,242.5938 331.9219,244.4844 334.8125,244.4844 C336.0313,244.4844 337.1875,244.1875 337.9375,243.6406 C338.5156,243.2344 338.8438,242.7813 338.8438,242.3906 C338.8438,241.9375 338.4531,241.5469 337.9844,241.5469 C337.7656,241.5469 337.5625,241.625 337.375,241.8125 C336.9219,242.2969 336.9219,242.2969 336.7344,242.3906 C336.3125,242.6563 335.625,242.7813 334.8594,242.7813 C332.8125,242.7813 331.5156,241.6875 331.5156,239.9844 L331.5156,238.8906 C331.5156,237.1094 332.7656,235.7969 334.5,235.7969 C335.0781,235.7969 335.6875,235.9531 336.1563,236.2031 C336.6406,236.4844 336.8125,236.7031 336.9063,237.1094 C336.9688,237.5156 337,237.6406 337.1406,237.7656 C337.2813,237.9063 337.5156,238.0156 337.7344,238.0156 C338,238.0156 338.2656,237.875 338.4375,237.6563 C338.5469,237.5 338.5781,237.3125 338.5781,236.8906 L338.5781,235.4688 C338.5781,235.0313 338.5625,234.9063 338.4688,234.75 C338.3125,234.4844 338.0313,234.3438 337.7344,234.3438 C337.4375,234.3438 337.2344,234.4375 337.0156,234.75 L336.8438,234.6719 Z " fill="#000000"/><text fill="#000000" font-family="sans-serif" font-size="12" lengthAdjust="spacing" textLength="60" x="348.5" y="243.1543">Opponent</text><line style="stroke:#A80036;stroke-width:1.5;" x1="320.5" x2="410.5" y1="255" y2="255"/><line style="stroke:#A80036;stroke-width:1.5;" x1="320.5" x2="410.5" y1="263" y2="263"/><!--MD5=[cdabe32020536c8796653501ad3f50f4]
class BackPack--><rect fill="#FEFECE" filter="url(#f92uyw7rxtkzq)" height="48" id="BackPack" style="stroke:#A80036;stroke-width:1.5;" width="88" x="500.5" y="223"/><ellipse cx="515.5" cy="239" fill="#ADD1B2" rx="11" ry="11" style="stroke:#A80036;stroke-width:1.0;"/><path d="M517.8438,234.6719 C516.9063,234.2344 516.3125,234.0938 515.4375,234.0938 C512.8125,234.0938 510.8125,236.1719 510.8125,238.8906 L510.8125,240.0156 C510.8125,242.5938 512.9219,244.4844 515.8125,244.4844 C517.0313,244.4844 518.1875,244.1875 518.9375,243.6406 C519.5156,243.2344 519.8438,242.7813 519.8438,242.3906 C519.8438,241.9375 519.4531,241.5469 518.9844,241.5469 C518.7656,241.5469 518.5625,241.625 518.375,241.8125 C517.9219,242.2969 517.9219,242.2969 517.7344,242.3906 C517.3125,242.6563 516.625,242.7813 515.8594,242.7813 C513.8125,242.7813 512.5156,241.6875 512.5156,239.9844 L512.5156,238.8906 C512.5156,237.1094 513.7656,235.7969 515.5,235.7969 C516.0781,235.7969 516.6875,235.9531 517.1563,236.2031 C517.6406,236.4844 517.8125,236.7031 517.9063,237.1094 C517.9688,237.5156 518,237.6406 518.1406,237.7656 C518.2813,237.9063 518.5156,238.0156 518.7344,238.0156 C519,238.0156 519.2656,237.875 519.4375,237.6563 C519.5469,237.5 519.5781,237.3125 519.5781,236.8906 L519.5781,235.4688 C519.5781,235.0313 519.5625,234.9063 519.4688,234.75 C519.3125,234.4844 519.0313,234.3438 518.7344,234.3438 C518.4375,234.3438 518.2344,234.4375 518.0156,234.75 L517.8438,234.6719 Z " fill="#000000"/><text fill="#000000" font-family="sans-serif" font-size="12" lengthAdjust="spacing" textLength="56" x="529.5" y="243.1543">BackPack</text><line style="stroke:#A80036;stroke-width:1.5;" x1="501.5" x2="587.5" y1="255" y2="255"/><line style="stroke:#A80036;stroke-width:1.5;" x1="501.5" x2="587.5" y1="263" y2="263"/><!--MD5=[2c920865f3e1c31d9b090cf62ed57544]
class IObjects--><rect fill="#FEFECE" filter="url(#f92uyw7rxtkzq)" height="48" id="IObjects" style="stroke:#A80036;stroke-width:1.5;" width="82" x="557.5" y="331"/><ellipse cx="572.5" cy="347" fill="#ADD1B2" rx="11" ry="11" style="stroke:#A80036;stroke-width:1.0;"/><path d="M574.8438,342.6719 C573.9063,342.2344 573.3125,342.0938 572.4375,342.0938 C569.8125,342.0938 567.8125,344.1719 567.8125,346.8906 L567.8125,348.0156 C567.8125,350.5938 569.9219,352.4844 572.8125,352.4844 C574.0313,352.4844 575.1875,352.1875 575.9375,351.6406 C576.5156,351.2344 576.8438,350.7813 576.8438,350.3906 C576.8438,349.9375 576.4531,349.5469 575.9844,349.5469 C575.7656,349.5469 575.5625,349.625 575.375,349.8125 C574.9219,350.2969 574.9219,350.2969 574.7344,350.3906 C574.3125,350.6563 573.625,350.7813 572.8594,350.7813 C570.8125,350.7813 569.5156,349.6875 569.5156,347.9844 L569.5156,346.8906 C569.5156,345.1094 570.7656,343.7969 572.5,343.7969 C573.0781,343.7969 573.6875,343.9531 574.1563,344.2031 C574.6406,344.4844 574.8125,344.7031 574.9063,345.1094 C574.9688,345.5156 575,345.6406 575.1406,345.7656 C575.2813,345.9063 575.5156,346.0156 575.7344,346.0156 C576,346.0156 576.2656,345.875 576.4375,345.6563 C576.5469,345.5 576.5781,345.3125 576.5781,344.8906 L576.5781,343.4688 C576.5781,343.0313 576.5625,342.9063 576.4688,342.75 C576.3125,342.4844 576.0313,342.3438 575.7344,342.3438 C575.4375,342.3438 575.2344,342.4375 575.0156,342.75 L574.8438,342.6719 Z " fill="#000000"/><text fill="#000000" font-family="sans-serif" font-size="12" lengthAdjust="spacing" textLength="50" x="586.5" y="351.1543">IObjects</text><line style="stroke:#A80036;stroke-width:1.5;" x1="558.5" x2="638.5" y1="363" y2="363"/><line style="stroke:#A80036;stroke-width:1.5;" x1="558.5" x2="638.5" y1="371" y2="371"/><!--MD5=[d05ee112c176cf0677584582ae8939f3]
class MagicWand--><rect fill="#FEFECE" filter="url(#f92uyw7rxtkzq)" height="48" id="MagicWand" style="stroke:#A80036;stroke-width:1.5;" width="101" x="319" y="439"/><ellipse cx="334" cy="455" fill="#ADD1B2" rx="11" ry="11" style="stroke:#A80036;stroke-width:1.0;"/><path d="M336.3438,450.6719 C335.4063,450.2344 334.8125,450.0938 333.9375,450.0938 C331.3125,450.0938 329.3125,452.1719 329.3125,454.8906 L329.3125,456.0156 C329.3125,458.5938 331.4219,460.4844 334.3125,460.4844 C335.5313,460.4844 336.6875,460.1875 337.4375,459.6406 C338.0156,459.2344 338.3438,458.7813 338.3438,458.3906 C338.3438,457.9375 337.9531,457.5469 337.4844,457.5469 C337.2656,457.5469 337.0625,457.625 336.875,457.8125 C336.4219,458.2969 336.4219,458.2969 336.2344,458.3906 C335.8125,458.6563 335.125,458.7813 334.3594,458.7813 C332.3125,458.7813 331.0156,457.6875 331.0156,455.9844 L331.0156,454.8906 C331.0156,453.1094 332.2656,451.7969 334,451.7969 C334.5781,451.7969 335.1875,451.9531 335.6563,452.2031 C336.1406,452.4844 336.3125,452.7031 336.4063,453.1094 C336.4688,453.5156 336.5,453.6406 336.6406,453.7656 C336.7813,453.9063 337.0156,454.0156 337.2344,454.0156 C337.5,454.0156 337.7656,453.875 337.9375,453.6563 C338.0469,453.5 338.0781,453.3125 338.0781,452.8906 L338.0781,451.4688 C338.0781,451.0313 338.0625,450.9063 337.9688,450.75 C337.8125,450.4844 337.5313,450.3438 337.2344,450.3438 C336.9375,450.3438 336.7344,450.4375 336.5156,450.75 L336.3438,450.6719 Z " fill="#000000"/><text fill="#000000" font-family="sans-serif" font-size="12" lengthAdjust="spacing" textLength="69" x="348" y="459.1543">MagicWand</text><line style="stroke:#A80036;stroke-width:1.5;" x1="320" x2="419" y1="471" y2="471"/><line style="stroke:#A80036;stroke-width:1.5;" x1="320" x2="419" y1="479" y2="479"/><!--MD5=[b0a16f083d971cd5fdb00a761526111f]
class Potion--><rect fill="#FEFECE" filter="url(#f92uyw7rxtkzq)" height="48" id="Potion" style="stroke:#A80036;stroke-width:1.5;" width="68" x="455.5" y="439"/><ellipse cx="470.5" cy="455" fill="#ADD1B2" rx="11" ry="11" style="stroke:#A80036;stroke-width:1.0;"/><path d="M472.8438,450.6719 C471.9063,450.2344 471.3125,450.0938 470.4375,450.0938 C467.8125,450.0938 465.8125,452.1719 465.8125,454.8906 L465.8125,456.0156 C465.8125,458.5938 467.9219,460.4844 470.8125,460.4844 C472.0313,460.4844 473.1875,460.1875 473.9375,459.6406 C474.5156,459.2344 474.8438,458.7813 474.8438,458.3906 C474.8438,457.9375 474.4531,457.5469 473.9844,457.5469 C473.7656,457.5469 473.5625,457.625 473.375,457.8125 C472.9219,458.2969 472.9219,458.2969 472.7344,458.3906 C472.3125,458.6563 471.625,458.7813 470.8594,458.7813 C468.8125,458.7813 467.5156,457.6875 467.5156,455.9844 L467.5156,454.8906 C467.5156,453.1094 468.7656,451.7969 470.5,451.7969 C471.0781,451.7969 471.6875,451.9531 472.1563,452.2031 C472.6406,452.4844 472.8125,452.7031 472.9063,453.1094 C472.9688,453.5156 473,453.6406 473.1406,453.7656 C473.2813,453.9063 473.5156,454.0156 473.7344,454.0156 C474,454.0156 474.2656,453.875 474.4375,453.6563 C474.5469,453.5 474.5781,453.3125 474.5781,452.8906 L474.5781,451.4688 C474.5781,451.0313 474.5625,450.9063 474.4688,450.75 C474.3125,450.4844 474.0313,450.3438 473.7344,450.3438 C473.4375,450.3438 473.2344,450.4375 473.0156,450.75 L472.8438,450.6719 Z " fill="#000000"/><text fill="#000000" font-family="sans-serif" font-size="12" lengthAdjust="spacing" textLength="36" x="484.5" y="459.1543">Potion</text><line style="stroke:#A80036;stroke-width:1.5;" x1="456.5" x2="522.5" y1="471" y2="471"/><line style="stroke:#A80036;stroke-width:1.5;" x1="456.5" x2="522.5" y1="479" y2="479"/><!--MD5=[c78802c0212743a9db9428562e0a19fd]
class Scepter--><rect fill="#FEFECE" filter="url(#f92uyw7rxtkzq)" height="48" id="Scepter" style="stroke:#A80036;stroke-width:1.5;" width="80" x="558.5" y="439"/><ellipse cx="573.5" cy="455" fill="#ADD1B2" rx="11" ry="11" style="stroke:#A80036;stroke-width:1.0;"/><path d="M575.8438,450.6719 C574.9063,450.2344 574.3125,450.0938 573.4375,450.0938 C570.8125,450.0938 568.8125,452.1719 568.8125,454.8906 L568.8125,456.0156 C568.8125,458.5938 570.9219,460.4844 573.8125,460.4844 C575.0313,460.4844 576.1875,460.1875 576.9375,459.6406 C577.5156,459.2344 577.8438,458.7813 577.8438,458.3906 C577.8438,457.9375 577.4531,457.5469 576.9844,457.5469 C576.7656,457.5469 576.5625,457.625 576.375,457.8125 C575.9219,458.2969 575.9219,458.2969 575.7344,458.3906 C575.3125,458.6563 574.625,458.7813 573.8594,458.7813 C571.8125,458.7813 570.5156,457.6875 570.5156,455.9844 L570.5156,454.8906 C570.5156,453.1094 571.7656,451.7969 573.5,451.7969 C574.0781,451.7969 574.6875,451.9531 575.1563,452.2031 C575.6406,452.4844 575.8125,452.7031 575.9063,453.1094 C575.9688,453.5156 576,453.6406 576.1406,453.7656 C576.2813,453.9063 576.5156,454.0156 576.7344,454.0156 C577,454.0156 577.2656,453.875 577.4375,453.6563 C577.5469,453.5 577.5781,453.3125 577.5781,452.8906 L577.5781,451.4688 C577.5781,451.0313 577.5625,450.9063 577.4688,450.75 C577.3125,450.4844 577.0313,450.3438 576.7344,450.3438 C576.4375,450.3438 576.2344,450.4375 576.0156,450.75 L575.8438,450.6719 Z " fill="#000000"/><text fill="#000000" font-family="sans-serif" font-size="12" lengthAdjust="spacing" textLength="48" x="587.5" y="459.1543">Scepter</text><line style="stroke:#A80036;stroke-width:1.5;" x1="559.5" x2="637.5" y1="471" y2="471"/><line style="stroke:#A80036;stroke-width:1.5;" x1="559.5" x2="637.5" y1="479" y2="479"/><!--MD5=[0335979a550fbd11f2466c06e262e7ca]
class Shield--><rect fill="#FEFECE" filter="url(#f92uyw7rxtkzq)" height="48" id="Shield" style="stroke:#A80036;stroke-width:1.5;" width="69" x="674" y="439"/><ellipse cx="689" cy="455" fill="#ADD1B2" rx="11" ry="11" style="stroke:#A80036;stroke-width:1.0;"/><path d="M691.3438,450.6719 C690.4063,450.2344 689.8125,450.0938 688.9375,450.0938 C686.3125,450.0938 684.3125,452.1719 684.3125,454.8906 L684.3125,456.0156 C684.3125,458.5938 686.4219,460.4844 689.3125,460.4844 C690.5313,460.4844 691.6875,460.1875 692.4375,459.6406 C693.0156,459.2344 693.3438,458.7813 693.3438,458.3906 C693.3438,457.9375 692.9531,457.5469 692.4844,457.5469 C692.2656,457.5469 692.0625,457.625 691.875,457.8125 C691.4219,458.2969 691.4219,458.2969 691.2344,458.3906 C690.8125,458.6563 690.125,458.7813 689.3594,458.7813 C687.3125,458.7813 686.0156,457.6875 686.0156,455.9844 L686.0156,454.8906 C686.0156,453.1094 687.2656,451.7969 689,451.7969 C689.5781,451.7969 690.1875,451.9531 690.6563,452.2031 C691.1406,452.4844 691.3125,452.7031 691.4063,453.1094 C691.4688,453.5156 691.5,453.6406 691.6406,453.7656 C691.7813,453.9063 692.0156,454.0156 692.2344,454.0156 C692.5,454.0156 692.7656,453.875 692.9375,453.6563 C693.0469,453.5 693.0781,453.3125 693.0781,452.8906 L693.0781,451.4688 C693.0781,451.0313 693.0625,450.9063 692.9688,450.75 C692.8125,450.4844 692.5313,450.3438 692.2344,450.3438 C691.9375,450.3438 691.7344,450.4375 691.5156,450.75 L691.3438,450.6719 Z " fill="#000000"/><text fill="#000000" font-family="sans-serif" font-size="12" lengthAdjust="spacing" textLength="37" x="703" y="459.1543">Shield</text><line style="stroke:#A80036;stroke-width:1.5;" x1="675" x2="742" y1="471" y2="471"/><line style="stroke:#A80036;stroke-width:1.5;" x1="675" x2="742" y1="479" y2="479"/><!--MD5=[53a1db06a8ddb586c04aec032f1cb7b6]
class Sword--><rect fill="#FEFECE" filter="url(#f92uyw7rxtkzq)" height="48" id="Sword" style="stroke:#A80036;stroke-width:1.5;" width="71" x="778" y="439"/><ellipse cx="793" cy="455" fill="#ADD1B2" rx="11" ry="11" style="stroke:#A80036;stroke-width:1.0;"/><path d="M795.3438,450.6719 C794.4063,450.2344 793.8125,450.0938 792.9375,450.0938 C790.3125,450.0938 788.3125,452.1719 788.3125,454.8906 L788.3125,456.0156 C788.3125,458.5938 790.4219,460.4844 793.3125,460.4844 C794.5313,460.4844 795.6875,460.1875 796.4375,459.6406 C797.0156,459.2344 797.3438,458.7813 797.3438,458.3906 C797.3438,457.9375 796.9531,457.5469 796.4844,457.5469 C796.2656,457.5469 796.0625,457.625 795.875,457.8125 C795.4219,458.2969 795.4219,458.2969 795.2344,458.3906 C794.8125,458.6563 794.125,458.7813 793.3594,458.7813 C791.3125,458.7813 790.0156,457.6875 790.0156,455.9844 L790.0156,454.8906 C790.0156,453.1094 791.2656,451.7969 793,451.7969 C793.5781,451.7969 794.1875,451.9531 794.6563,452.2031 C795.1406,452.4844 795.3125,452.7031 795.4063,453.1094 C795.4688,453.5156 795.5,453.6406 795.6406,453.7656 C795.7813,453.9063 796.0156,454.0156 796.2344,454.0156 C796.5,454.0156 796.7656,453.875 796.9375,453.6563 C797.0469,453.5 797.0781,453.3125 797.0781,452.8906 L797.0781,451.4688 C797.0781,451.0313 797.0625,450.9063 796.9688,450.75 C796.8125,450.4844 796.5313,450.3438 796.2344,450.3438 C795.9375,450.3438 795.7344,450.4375 795.5156,450.75 L795.3438,450.6719 Z " fill="#000000"/><text fill="#000000" font-family="sans-serif" font-size="12" lengthAdjust="spacing" textLength="39" x="807" y="459.1543">Sword</text><line style="stroke:#A80036;stroke-width:1.5;" x1="779" x2="848" y1="471" y2="471"/><line style="stroke:#A80036;stroke-width:1.5;" x1="779" x2="848" y1="479" y2="479"/><!--MD5=[4d0e61cd8102cff63ea9dd107048c79b]
class Warrior--><rect fill="#FEFECE" filter="url(#f92uyw7rxtkzq)" height="48" id="Warrior" style="stroke:#A80036;stroke-width:1.5;" width="77" x="7" y="331"/><ellipse cx="22" cy="347" fill="#ADD1B2" rx="11" ry="11" style="stroke:#A80036;stroke-width:1.0;"/><path d="M24.3438,342.6719 C23.4063,342.2344 22.8125,342.0938 21.9375,342.0938 C19.3125,342.0938 17.3125,344.1719 17.3125,346.8906 L17.3125,348.0156 C17.3125,350.5938 19.4219,352.4844 22.3125,352.4844 C23.5313,352.4844 24.6875,352.1875 25.4375,351.6406 C26.0156,351.2344 26.3438,350.7813 26.3438,350.3906 C26.3438,349.9375 25.9531,349.5469 25.4844,349.5469 C25.2656,349.5469 25.0625,349.625 24.875,349.8125 C24.4219,350.2969 24.4219,350.2969 24.2344,350.3906 C23.8125,350.6563 23.125,350.7813 22.3594,350.7813 C20.3125,350.7813 19.0156,349.6875 19.0156,347.9844 L19.0156,346.8906 C19.0156,345.1094 20.2656,343.7969 22,343.7969 C22.5781,343.7969 23.1875,343.9531 23.6563,344.2031 C24.1406,344.4844 24.3125,344.7031 24.4063,345.1094 C24.4688,345.5156 24.5,345.6406 24.6406,345.7656 C24.7813,345.9063 25.0156,346.0156 25.2344,346.0156 C25.5,346.0156 25.7656,345.875 25.9375,345.6563 C26.0469,345.5 26.0781,345.3125 26.0781,344.8906 L26.0781,343.4688 C26.0781,343.0313 26.0625,342.9063 25.9688,342.75 C25.8125,342.4844 25.5313,342.3438 25.2344,342.3438 C24.9375,342.3438 24.7344,342.4375 24.5156,342.75 L24.3438,342.6719 Z " fill="#000000"/><text fill="#000000" font-family="sans-serif" font-size="12" lengthAdjust="spacing" textLength="45" x="36" y="351.1543">Warrior</text><line style="stroke:#A80036;stroke-width:1.5;" x1="8" x2="83" y1="363" y2="363"/><line style="stroke:#A80036;stroke-width:1.5;" x1="8" x2="83" y1="371" y2="371"/><!--MD5=[5bf7d035477f2aea02ceb8f2b2c533b6]
class Wizard--><rect fill="#FEFECE" filter="url(#f92uyw7rxtkzq)" height="48" id="Wizard" style="stroke:#A80036;stroke-width:1.5;" width="74" x="119.5" y="331"/><ellipse cx="134.5" cy="347" fill="#ADD1B2" rx="11" ry="11" style="stroke:#A80036;stroke-width:1.0;"/><path d="M136.8438,342.6719 C135.9063,342.2344 135.3125,342.0938 134.4375,342.0938 C131.8125,342.0938 129.8125,344.1719 129.8125,346.8906 L129.8125,348.0156 C129.8125,350.5938 131.9219,352.4844 134.8125,352.4844 C136.0313,352.4844 137.1875,352.1875 137.9375,351.6406 C138.5156,351.2344 138.8438,350.7813 138.8438,350.3906 C138.8438,349.9375 138.4531,349.5469 137.9844,349.5469 C137.7656,349.5469 137.5625,349.625 137.375,349.8125 C136.9219,350.2969 136.9219,350.2969 136.7344,350.3906 C136.3125,350.6563 135.625,350.7813 134.8594,350.7813 C132.8125,350.7813 131.5156,349.6875 131.5156,347.9844 L131.5156,346.8906 C131.5156,345.1094 132.7656,343.7969 134.5,343.7969 C135.0781,343.7969 135.6875,343.9531 136.1563,344.2031 C136.6406,344.4844 136.8125,344.7031 136.9063,345.1094 C136.9688,345.5156 137,345.6406 137.1406,345.7656 C137.2813,345.9063 137.5156,346.0156 137.7344,346.0156 C138,346.0156 138.2656,345.875 138.4375,345.6563 C138.5469,345.5 138.5781,345.3125 138.5781,344.8906 L138.5781,343.4688 C138.5781,343.0313 138.5625,342.9063 138.4688,342.75 C138.3125,342.4844 138.0313,342.3438 137.7344,342.3438 C137.4375,342.3438 137.2344,342.4375 137.0156,342.75 L136.8438,342.6719 Z " fill="#000000"/><text fill="#000000" font-family="sans-serif" font-size="12" lengthAdjust="spacing" textLength="42" x="148.5" y="351.1543">Wizard</text><line style="stroke:#A80036;stroke-width:1.5;" x1="120.5" x2="192.5" y1="363" y2="363"/><line style="stroke:#A80036;stroke-width:1.5;" x1="120.5" x2="192.5" y1="371" y2="371"/><!--MD5=[7d599c5e455433b017e0c697706c8fd1]
class Necromancer--><rect fill="#FEFECE" filter="url(#f92uyw7rxtkzq)" height="48" id="Necromancer" style="stroke:#A80036;stroke-width:1.5;" width="113" x="100" y="439"/><ellipse cx="115" cy="455" fill="#ADD1B2" rx="11" ry="11" style="stroke:#A80036;stroke-width:1.0;"/><path d="M117.3438,450.6719 C116.4063,450.2344 115.8125,450.0938 114.9375,450.0938 C112.3125,450.0938 110.3125,452.1719 110.3125,454.8906 L110.3125,456.0156 C110.3125,458.5938 112.4219,460.4844 115.3125,460.4844 C116.5313,460.4844 117.6875,460.1875 118.4375,459.6406 C119.0156,459.2344 119.3438,458.7813 119.3438,458.3906 C119.3438,457.9375 118.9531,457.5469 118.4844,457.5469 C118.2656,457.5469 118.0625,457.625 117.875,457.8125 C117.4219,458.2969 117.4219,458.2969 117.2344,458.3906 C116.8125,458.6563 116.125,458.7813 115.3594,458.7813 C113.3125,458.7813 112.0156,457.6875 112.0156,455.9844 L112.0156,454.8906 C112.0156,453.1094 113.2656,451.7969 115,451.7969 C115.5781,451.7969 116.1875,451.9531 116.6563,452.2031 C117.1406,452.4844 117.3125,452.7031 117.4063,453.1094 C117.4688,453.5156 117.5,453.6406 117.6406,453.7656 C117.7813,453.9063 118.0156,454.0156 118.2344,454.0156 C118.5,454.0156 118.7656,453.875 118.9375,453.6563 C119.0469,453.5 119.0781,453.3125 119.0781,452.8906 L119.0781,451.4688 C119.0781,451.0313 119.0625,450.9063 118.9688,450.75 C118.8125,450.4844 118.5313,450.3438 118.2344,450.3438 C117.9375,450.3438 117.7344,450.4375 117.5156,450.75 L117.3438,450.6719 Z " fill="#000000"/><text fill="#000000" font-family="sans-serif" font-size="12" lengthAdjust="spacing" textLength="81" x="129" y="459.1543">Necromancer</text><line style="stroke:#A80036;stroke-width:1.5;" x1="101" x2="212" y1="471" y2="471"/><line style="stroke:#A80036;stroke-width:1.5;" x1="101" x2="212" y1="479" y2="479"/><!--MD5=[4f97594e4f5bddf51cc2ca2905d58bd8]
class Inferi--><rect fill="#FEFECE" filter="url(#f92uyw7rxtkzq)" height="48" id="Inferi" style="stroke:#A80036;stroke-width:1.5;" width="62" x="228.5" y="331"/><ellipse cx="243.5" cy="347" fill="#ADD1B2" rx="11" ry="11" style="stroke:#A80036;stroke-width:1.0;"/><path d="M245.8438,342.6719 C244.9063,342.2344 244.3125,342.0938 243.4375,342.0938 C240.8125,342.0938 238.8125,344.1719 238.8125,346.8906 L238.8125,348.0156 C238.8125,350.5938 240.9219,352.4844 243.8125,352.4844 C245.0313,352.4844 246.1875,352.1875 246.9375,351.6406 C247.5156,351.2344 247.8438,350.7813 247.8438,350.3906 C247.8438,349.9375 247.4531,349.5469 246.9844,349.5469 C246.7656,349.5469 246.5625,349.625 246.375,349.8125 C245.9219,350.2969 245.9219,350.2969 245.7344,350.3906 C245.3125,350.6563 244.625,350.7813 243.8594,350.7813 C241.8125,350.7813 240.5156,349.6875 240.5156,347.9844 L240.5156,346.8906 C240.5156,345.1094 241.7656,343.7969 243.5,343.7969 C244.0781,343.7969 244.6875,343.9531 245.1563,344.2031 C245.6406,344.4844 245.8125,344.7031 245.9063,345.1094 C245.9688,345.5156 246,345.6406 246.1406,345.7656 C246.2813,345.9063 246.5156,346.0156 246.7344,346.0156 C247,346.0156 247.2656,345.875 247.4375,345.6563 C247.5469,345.5 247.5781,345.3125 247.5781,344.8906 L247.5781,343.4688 C247.5781,343.0313 247.5625,342.9063 247.4688,342.75 C247.3125,342.4844 247.0313,342.3438 246.7344,342.3438 C246.4375,342.3438 246.2344,342.4375 246.0156,342.75 L245.8438,342.6719 Z " fill="#000000"/><text fill="#000000" font-family="sans-serif" font-size="12" lengthAdjust="spacing" textLength="30" x="257.5" y="351.1543">Inferi</text><line style="stroke:#A80036;stroke-width:1.5;" x1="229.5" x2="289.5" y1="363" y2="363"/><line style="stroke:#A80036;stroke-width:1.5;" x1="229.5" x2="289.5" y1="371" y2="371"/><!--MD5=[d42dc03bb1e8dfccb21c636cd21862be]
class Medusa--><rect fill="#FEFECE" filter="url(#f92uyw7rxtkzq)" height="48" id="Medusa" style="stroke:#A80036;stroke-width:1.5;" width="79" x="326" y="331"/><ellipse cx="341" cy="347" fill="#ADD1B2" rx="11" ry="11" style="stroke:#A80036;stroke-width:1.0;"/><path d="M343.3438,342.6719 C342.4063,342.2344 341.8125,342.0938 340.9375,342.0938 C338.3125,342.0938 336.3125,344.1719 336.3125,346.8906 L336.3125,348.0156 C336.3125,350.5938 338.4219,352.4844 341.3125,352.4844 C342.5313,352.4844 343.6875,352.1875 344.4375,351.6406 C345.0156,351.2344 345.3438,350.7813 345.3438,350.3906 C345.3438,349.9375 344.9531,349.5469 344.4844,349.5469 C344.2656,349.5469 344.0625,349.625 343.875,349.8125 C343.4219,350.2969 343.4219,350.2969 343.2344,350.3906 C342.8125,350.6563 342.125,350.7813 341.3594,350.7813 C339.3125,350.7813 338.0156,349.6875 338.0156,347.9844 L338.0156,346.8906 C338.0156,345.1094 339.2656,343.7969 341,343.7969 C341.5781,343.7969 342.1875,343.9531 342.6563,344.2031 C343.1406,344.4844 343.3125,344.7031 343.4063,345.1094 C343.4688,345.5156 343.5,345.6406 343.6406,345.7656 C343.7813,345.9063 344.0156,346.0156 344.2344,346.0156 C344.5,346.0156 344.7656,345.875 344.9375,345.6563 C345.0469,345.5 345.0781,345.3125 345.0781,344.8906 L345.0781,343.4688 C345.0781,343.0313 345.0625,342.9063 344.9688,342.75 C344.8125,342.4844 344.5313,342.3438 344.2344,342.3438 C343.9375,342.3438 343.7344,342.4375 343.5156,342.75 L343.3438,342.6719 Z " fill="#000000"/><text fill="#000000" font-family="sans-serif" font-size="12" lengthAdjust="spacing" textLength="47" x="355" y="351.1543">Medusa</text><line style="stroke:#A80036;stroke-width:1.5;" x1="327" x2="404" y1="363" y2="363"/><line style="stroke:#A80036;stroke-width:1.5;" x1="327" x2="404" y1="371" y2="371"/><!--MD5=[eec901bb95dcc22716bbcbcaabc6de6a]
class Vampire--><rect fill="#FEFECE" filter="url(#f92uyw7rxtkzq)" height="48" id="Vampire" style="stroke:#A80036;stroke-width:1.5;" width="82" x="440.5" y="331"/><ellipse cx="455.5" cy="347" fill="#ADD1B2" rx="11" ry="11" style="stroke:#A80036;stroke-width:1.0;"/><path d="M457.8438,342.6719 C456.9063,342.2344 456.3125,342.0938 455.4375,342.0938 C452.8125,342.0938 450.8125,344.1719 450.8125,346.8906 L450.8125,348.0156 C450.8125,350.5938 452.9219,352.4844 455.8125,352.4844 C457.0313,352.4844 458.1875,352.1875 458.9375,351.6406 C459.5156,351.2344 459.8438,350.7813 459.8438,350.3906 C459.8438,349.9375 459.4531,349.5469 458.9844,349.5469 C458.7656,349.5469 458.5625,349.625 458.375,349.8125 C457.9219,350.2969 457.9219,350.2969 457.7344,350.3906 C457.3125,350.6563 456.625,350.7813 455.8594,350.7813 C453.8125,350.7813 452.5156,349.6875 452.5156,347.9844 L452.5156,346.8906 C452.5156,345.1094 453.7656,343.7969 455.5,343.7969 C456.0781,343.7969 456.6875,343.9531 457.1563,344.2031 C457.6406,344.4844 457.8125,344.7031 457.9063,345.1094 C457.9688,345.5156 458,345.6406 458.1406,345.7656 C458.2813,345.9063 458.5156,346.0156 458.7344,346.0156 C459,346.0156 459.2656,345.875 459.4375,345.6563 C459.5469,345.5 459.5781,345.3125 459.5781,344.8906 L459.5781,343.4688 C459.5781,343.0313 459.5625,342.9063 459.4688,342.75 C459.3125,342.4844 459.0313,342.3438 458.7344,342.3438 C458.4375,342.3438 458.2344,342.4375 458.0156,342.75 L457.8438,342.6719 Z " fill="#000000"/><text fill="#000000" font-family="sans-serif" font-size="12" lengthAdjust="spacing" textLength="50" x="469.5" y="351.1543">Vampire</text><line style="stroke:#A80036;stroke-width:1.5;" x1="441.5" x2="521.5" y1="363" y2="363"/><line style="stroke:#A80036;stroke-width:1.5;" x1="441.5" x2="521.5" y1="371" y2="371"/><!--MD5=[ec61139d352b06a4b12df3d7d1213c59]
reverse link Game to Hero--><path codeLine="1" d="M397.01,66.935 C390.059,82.611 382.047,100.682 375.841,114.678 " fill="none" id="Game-backto-Hero" style="stroke:#A80036;stroke-width:1.0;"/><polygon fill="#FFFFFF" points="402.302,55,396.2132,58.8634,397.4375,65.9698,403.5264,62.1064,402.302,55" style="stroke:#A80036;stroke-width:1.0;"/><!--MD5=[8b8164a9f3e706b3caf90714a28db3cb]
reverse link Game to Map--><path codeLine="2" d="M428.32,66.935 C435.418,82.611 443.601,100.682 449.939,114.678 " fill="none" id="Game-backto-Map" style="stroke:#A80036;stroke-width:1.0;"/><polygon fill="#FFFFFF" points="422.915,55,421.7463,62.1158,427.8651,65.9314,429.0339,58.8157,422.915,55" style="stroke:#A80036;stroke-width:1.0;"/><!--MD5=[1fa934c4a5f5a922ecf64a9397863e6c]
reverse link Hero to Player--><path codeLine="3" d="M316.274,164.966 C277.666,184.547 224.925,211.296 190.787,228.61 " fill="none" id="Hero-backto-Player" style="stroke:#A80036;stroke-width:1.0;"/><polygon fill="none" points="313.207,158.673,334.211,155.869,319.54,171.159,313.207,158.673" style="stroke:#A80036;stroke-width:1.0;"/><!--MD5=[3e869fb7283eb8659c99a524c59e5dc6]
reverse link Hero to Opponent--><path codeLine="4" d="M365.5,183.024 C365.5,196.579 365.5,211.038 365.5,222.678 " fill="none" id="Hero-backto-Opponent" style="stroke:#A80036;stroke-width:1.0;"/><polygon fill="none" points="358.5,183,365.5,163,372.5,183,358.5,183" style="stroke:#A80036;stroke-width:1.0;"/><!--MD5=[abb3f93c4194b70a4a8b253db13058f9]
reverse link Hero to BackPack--><path codeLine="5" d="M407.916,165.118 C437.526,182.652 476.748,205.879 505.563,222.942 " fill="none" id="Hero-backto-BackPack" style="stroke:#A80036;stroke-width:1.0;"/><polygon fill="#A80036" points="396.679,158.464,399.8034,164.9631,407.0042,164.5787,403.8799,158.0796,396.679,158.464" style="stroke:#A80036;stroke-width:1.0;"/><!--MD5=[f7f23e3f048211a516c63a51cc4c7001]
reverse link BackPack to IObjects--><path codeLine="6" d="M562.297,282.935 C570.283,298.611 579.489,316.682 586.619,330.678 " fill="none" id="BackPack-backto-IObjects" style="stroke:#A80036;stroke-width:1.0;"/><polygon fill="#FFFFFF" points="556.217,271,555.3757,278.1619,561.6631,281.693,562.5044,274.5311,556.217,271" style="stroke:#A80036;stroke-width:1.0;"/><!--MD5=[66ae2e9b296eb45fa964322264690066]
reverse link IObjects to MagicWand--><path codeLine="7" d="M538.94,383.569 C501.859,400.7334 454.703,422.561 419.558,438.829 " fill="none" id="IObjects-backto-MagicWand" style="stroke:#A80036;stroke-width:1.0;"/><polygon fill="none" points="536.205,377.122,557.295,375.073,542.085,389.8269,536.205,377.122" style="stroke:#A80036;stroke-width:1.0;"/><!--MD5=[5dfa66bcd5e4c6dec3c64c5f6974a63f]
reverse link IObjects to Potion--><path codeLine="8" d="M560.165,393.2802 C544.627,408.3905 527.161,425.3752 513.482,438.6784 " fill="none" id="IObjects-backto-Potion" style="stroke:#A80036;stroke-width:1.0;"/><polygon fill="none" points="555.63,387.9256,574.849,379,565.391,397.9622,555.63,387.9256" style="stroke:#A80036;stroke-width:1.0;"/><!--MD5=[10ffd9c75f4053805318b03d24e0f6ce]
reverse link IObjects to Scepter--><path codeLine="9" d="M598.5,399.0236 C598.5,412.5792 598.5,427.0381 598.5,438.6784 " fill="none" id="IObjects-backto-Scepter" style="stroke:#A80036;stroke-width:1.0;"/><polygon fill="none" points="591.5,399.0005,598.5,379,605.5,399.0004,591.5,399.0005" style="stroke:#A80036;stroke-width:1.0;"/><!--MD5=[2fcf47763dd200c62cd1d54d33f2a1cc]
reverse link IObjects to Shield--><path codeLine="10" d="M637.187,393.2802 C652.868,408.3905 670.493,425.3752 684.298,438.6784 " fill="none" id="IObjects-backto-Shield" style="stroke:#A80036;stroke-width:1.0;"/><polygon fill="none" points="631.913,397.9189,622.368,379,641.627,387.8378,631.913,397.9189" style="stroke:#A80036;stroke-width:1.0;"/><!--MD5=[5f49094cfd26192f95fdfb8918963fe3]
reverse link IObjects to Sword--><path codeLine="11" d="M657.646,385.161 C696.154,404.1459 745.119,428.2865 777.79,444.394 " fill="none" id="IObjects-backto-Sword" style="stroke:#A80036;stroke-width:1.0;"/><polygon fill="none" points="654.543,391.4349,639.7,376.312,660.734,378.878,654.543,391.4349" style="stroke:#A80036;stroke-width:1.0;"/><!--MD5=[541624c362478632a43539b5033ba5b5]
reverse link Player to Warrior--><path codeLine="12" d="M117.461,285.28 C101.6382,300.391 83.8524,317.375 69.9217,330.678 " fill="none" id="Player-backto-Warrior" style="stroke:#A80036;stroke-width:1.0;"/><polygon fill="none" points="113.116,279.751,132.415,271,122.785,289.876,113.116,279.751" style="stroke:#A80036;stroke-width:1.0;"/><!--MD5=[a0077733ebb16324937b27627b84dc49]
reverse link Player to Wizard--><path codeLine="13" d="M156.5,291.024 C156.5,304.579 156.5,319.038 156.5,330.678 " fill="none" id="Player-backto-Wizard" style="stroke:#A80036;stroke-width:1.0;"/><polygon fill="none" points="149.5,291,156.5,271,163.5,291,149.5,291" style="stroke:#A80036;stroke-width:1.0;"/><!--MD5=[46377ad5465d7a40fe38d575b029cd14]
reverse link Wizard to Necromancer--><path codeLine="14" d="M156.5,399.0236 C156.5,412.5792 156.5,427.0381 156.5,438.6784 " fill="none" id="Wizard-backto-Necromancer" style="stroke:#A80036;stroke-width:1.0;"/><polygon fill="none" points="149.5,399.0005,156.5,379,163.5,399.0004,149.5,399.0005" style="stroke:#A80036;stroke-width:1.0;"/><!--MD5=[9416b53e0eacbf09da102dfd8bb61806]
reverse link Opponent to Inferi--><path codeLine="15" d="M328.22,285.28 C313.109,300.391 296.125,317.375 282.822,330.678 " fill="none" id="Opponent-backto-Inferi" style="stroke:#A80036;stroke-width:1.0;"/><polygon fill="none" points="323.408,280.193,342.5,271,333.307,290.092,323.408,280.193" style="stroke:#A80036;stroke-width:1.0;"/><!--MD5=[fd041fa2c077e617d870bf0492d7a13a]
reverse link Opponent to Medusa--><path codeLine="16" d="M365.5,291.024 C365.5,304.579 365.5,319.038 365.5,330.678 " fill="none" id="Opponent-backto-Medusa" style="stroke:#A80036;stroke-width:1.0;"/><polygon fill="none" points="358.5,291,365.5,271,372.5,291,358.5,291" style="stroke:#A80036;stroke-width:1.0;"/><!--MD5=[32f6ec4ee0d8c7a6375dcd656b9980c9]
reverse link Opponent to Vampire--><path codeLine="17" d="M405.524,284.573 C422.251,299.859 441.193,317.167 455.978,330.678 " fill="none" id="Opponent-backto-Vampire" style="stroke:#A80036;stroke-width:1.0;"/><polygon fill="none" points="400.712,289.659,390.67,271,410.157,279.324,400.712,289.659" style="stroke:#A80036;stroke-width:1.0;"/><!--MD5=[72a069121c57742a67ffdfdf97f44e0b]
@startuml
Game o- - Hero
    Game o- - Map
    Hero <|- - Player
    Hero <|- - Opponent
    Hero *- - BackPack
    BackPack o- - IObjects
    IObjects <|- - MagicWand
    IObjects <|- - Potion
    IObjects <|- - Scepter
    IObjects <|- - Shield
    IObjects <|- - Sword
    Player <|- - Warrior
    Player <|- - Wizard
    Wizard <|- - Necromancer
    Opponent <|- - Inferi
    Opponent <|- - Medusa
    Opponent <|- - Vampire
@enduml

PlantUML version 1.2021.7(Sun May 23 12:40:07 UTC 2021)
(GPL source distribution)
Java Runtime: Java(TM) SE Runtime Environment
JVM: Java HotSpot(TM) 64-Bit Server VM
Default Encoding: UTF-8
Language: en
Country: US
--></g></svg>