<?xml version="1.0" encoding="UTF-8" standalone="no"?>
<svg xmlns="http://www.w3.org/2000/svg" xmlns:xlink="http://www.w3.org/1999/xlink" contentScriptType="application/ecmascript" contentStyleType="text/css" height="474px" preserveAspectRatio="none" style="width:1208px;height:474px;background:transparent;" version="1.1" viewBox="0 0 1208 474" width="1208px" zoomAndPan="magnify"><defs><filter height="300%" id="f1hjb0o0h6kyml" width="300%" x="-1" y="-1"><feGaussianBlur result="blurOut" stdDeviation="2.0"/><feColorMatrix in="blurOut" result="blurOut2" type="matrix" values="0 0 0 0 0 0 0 0 0 0 0 0 0 0 0 0 0 0 .4 0"/><feOffset dx="4.0" dy="4.0" in="blurOut2" result="blurOut3"/><feBlend in="SourceGraphic" in2="blurOut3" mode="normal"/></filter></defs><g><!--MD5=[2ef94bc619db2e243df53c024a0f8f99]
class IObject--><rect codeLine="1" fill="#FEFECE" filter="url(#f1hjb0o0h6kyml)" height="200.8516" id="IObject" style="stroke:#A80036;stroke-width:1.5;" width="179" x="515" y="7"/><ellipse cx="578.75" cy="23" fill="#B4A7E5" rx="11" ry="11" style="stroke:#A80036;stroke-width:1.0;"/><path d="M579.7031,19.7813 L581.4219,19.7813 C581.8125,19.7813 582,19.75 582.125,19.6719 C582.3906,19.5156 582.5313,19.2344 582.5313,18.9375 C582.5313,18.6719 582.4219,18.4063 582.1875,18.2344 C582.0156,18.125 581.875,18.0938 581.4219,18.0938 L576.2813,18.0938 C575.8438,18.0938 575.7188,18.1094 575.5625,18.2031 C575.3125,18.3594 575.1563,18.6563 575.1563,18.9375 C575.1563,19.2188 575.2969,19.4688 575.5156,19.6406 C575.6719,19.75 575.8594,19.7813 576.2813,19.7813 L578,19.7813 L578,26.2969 L576.2813,26.2969 C575.8438,26.2969 575.7188,26.3125 575.5625,26.4219 C575.3125,26.5781 575.1563,26.8594 575.1563,27.1563 C575.1563,27.4063 575.2969,27.6719 575.5156,27.8281 C575.6719,27.9531 575.875,28 576.2813,28 L581.4219,28 C582.1719,28 582.5313,27.7188 582.5313,27.1563 C582.5313,26.875 582.4219,26.625 582.1875,26.4531 C582.0156,26.3281 581.875,26.2969 581.4219,26.2969 L579.7031,26.2969 L579.7031,19.7813 Z " fill="#000000"/><text fill="#000000" font-family="sans-serif" font-size="12" font-style="italic" lengthAdjust="spacing" textLength="43" x="599.25" y="27.1543">IObject</text><line style="stroke:#A80036;stroke-width:1.5;" x1="516" x2="693" y1="39" y2="39"/><polygon fill="none" points="526,45,530,49,526,53,522,49" style="stroke:#B38D22;stroke-width:1.0;"/><text fill="#000000" font-family="sans-serif" font-size="11" lengthAdjust="spacing" textLength="46" x="535" y="53.2104">int posX</text><polygon fill="none" points="526,57.8047,530,61.8047,526,65.8047,522,61.8047" style="stroke:#B38D22;stroke-width:1.0;"/><text fill="#000000" font-family="sans-serif" font-size="11" lengthAdjust="spacing" textLength="45" x="535" y="66.0151">int posY</text><line style="stroke:#A80036;stroke-width:1.0;stroke-dasharray:1.0,2.0;" x1="516" x2="693" y1="72.6094" y2="72.6094"/><ellipse cx="526" cy="83.6094" fill="#84BE84" rx="3" ry="3" style="stroke:#038048;stroke-width:1.0;"/><text fill="#000000" font-family="sans-serif" font-size="11" font-style="italic" lengthAdjust="spacing" textLength="112" x="535" y="86.8198">~IObject() = default</text><ellipse cx="526" cy="113.2188" fill="#84BE84" rx="3" ry="3" style="stroke:#038048;stroke-width:1.0;"/><text fill="#000000" font-family="sans-serif" font-size="11" lengthAdjust="spacing" textLength="106" x="535" y="116.4292">int getPosX() const</text><ellipse cx="526" cy="126.0234" fill="#84BE84" rx="3" ry="3" style="stroke:#038048;stroke-width:1.0;"/><text fill="#000000" font-family="sans-serif" font-size="11" lengthAdjust="spacing" textLength="105" x="535" y="129.2339">int getPosY() const</text><line style="stroke:#A80036;stroke-width:1.0;stroke-dasharray:1.0,2.0;" x1="516" x2="586" y1="99.8164" y2="99.8164"/><text fill="#000000" font-family="sans-serif" font-size="11" lengthAdjust="spacing" textLength="37" x="586" y="103.1245">Getter</text><line style="stroke:#A80036;stroke-width:1.0;stroke-dasharray:1.0,2.0;" x1="623" x2="693" y1="99.8164" y2="99.8164"/><ellipse cx="526" cy="155.6328" fill="#84BE84" rx="3" ry="3" style="stroke:#038048;stroke-width:1.0;"/><text fill="#000000" font-family="sans-serif" font-size="11" lengthAdjust="spacing" textLength="123" x="535" y="158.8433">void setPosXY(int, int)</text><line style="stroke:#A80036;stroke-width:1.0;stroke-dasharray:1.0,2.0;" x1="516" x2="586.5" y1="142.2305" y2="142.2305"/><text fill="#000000" font-family="sans-serif" font-size="11" lengthAdjust="spacing" textLength="36" x="586.5" y="145.5386">Setter</text><line style="stroke:#A80036;stroke-width:1.0;stroke-dasharray:1.0,2.0;" x1="622.5" x2="693" y1="142.2305" y2="142.2305"/><ellipse cx="526" cy="185.2422" fill="#84BE84" rx="3" ry="3" style="stroke:#038048;stroke-width:1.0;"/><text fill="#000000" font-family="sans-serif" font-size="11" font-style="italic" lengthAdjust="spacing" textLength="145" x="535" y="188.4526">int getFeature() const = 0</text><ellipse cx="526" cy="198.0469" fill="#84BE84" rx="3" ry="3" style="stroke:#038048;stroke-width:1.0;"/><text fill="#000000" font-family="sans-serif" font-size="11" font-style="italic" lengthAdjust="spacing" textLength="153" x="535" y="201.2573">string getName() const = 0</text><line style="stroke:#A80036;stroke-width:1.0;stroke-dasharray:1.0,2.0;" x1="516" x2="586.5" y1="171.8398" y2="171.8398"/><text fill="#000000" font-family="sans-serif" font-size="11" lengthAdjust="spacing" textLength="36" x="586.5" y="175.1479">Virtual</text><line style="stroke:#A80036;stroke-width:1.0;stroke-dasharray:1.0,2.0;" x1="622.5" x2="693" y1="171.8398" y2="171.8398"/><!--MD5=[d05ee112c176cf0677584582ae8939f3]
class MagicWand--><rect codeLine="18" fill="#FEFECE" filter="url(#f1hjb0o0h6kyml)" height="145.6328" id="MagicWand" style="stroke:#A80036;stroke-width:1.5;" width="215" x="7" y="291"/><ellipse cx="75.75" cy="307" fill="#ADD1B2" rx="11" ry="11" style="stroke:#A80036;stroke-width:1.0;"/><path d="M78.0938,302.6719 C77.1563,302.2344 76.5625,302.0938 75.6875,302.0938 C73.0625,302.0938 71.0625,304.1719 71.0625,306.8906 L71.0625,308.0156 C71.0625,310.5938 73.1719,312.4844 76.0625,312.4844 C77.2813,312.4844 78.4375,312.1875 79.1875,311.6406 C79.7656,311.2344 80.0938,310.7813 80.0938,310.3906 C80.0938,309.9375 79.7031,309.5469 79.2344,309.5469 C79.0156,309.5469 78.8125,309.625 78.625,309.8125 C78.1719,310.2969 78.1719,310.2969 77.9844,310.3906 C77.5625,310.6563 76.875,310.7813 76.1094,310.7813 C74.0625,310.7813 72.7656,309.6875 72.7656,307.9844 L72.7656,306.8906 C72.7656,305.1094 74.0156,303.7969 75.75,303.7969 C76.3281,303.7969 76.9375,303.9531 77.4063,304.2031 C77.8906,304.4844 78.0625,304.7031 78.1563,305.1094 C78.2188,305.5156 78.25,305.6406 78.3906,305.7656 C78.5313,305.9063 78.7656,306.0156 78.9844,306.0156 C79.25,306.0156 79.5156,305.875 79.6875,305.6563 C79.7969,305.5 79.8281,305.3125 79.8281,304.8906 L79.8281,303.4688 C79.8281,303.0313 79.8125,302.9063 79.7188,302.75 C79.5625,302.4844 79.2813,302.3438 78.9844,302.3438 C78.6875,302.3438 78.4844,302.4375 78.2656,302.75 L78.0938,302.6719 Z " fill="#000000"/><text fill="#000000" font-family="sans-serif" font-size="12" lengthAdjust="spacing" textLength="69" x="96.25" y="311.1543">MagicWand</text><line style="stroke:#A80036;stroke-width:1.5;" x1="8" x2="221" y1="323" y2="323"/><rect fill="none" height="6" style="stroke:#C82930;stroke-width:1.0;" width="6" x="15" y="331"/><text fill="#000000" font-family="sans-serif" font-size="11" lengthAdjust="spacing" textLength="53" x="27" y="337.2104">int power</text><line style="stroke:#A80036;stroke-width:1.0;stroke-dasharray:1.0,2.0;" x1="8" x2="221" y1="343.8047" y2="343.8047"/><ellipse cx="18" cy="354.8047" fill="#84BE84" rx="3" ry="3" style="stroke:#038048;stroke-width:1.0;"/><text fill="#000000" font-family="sans-serif" font-size="11" lengthAdjust="spacing" textLength="129" x="27" y="358.0151">MagicWand() = default</text><ellipse cx="18" cy="367.6094" fill="#84BE84" rx="3" ry="3" style="stroke:#038048;stroke-width:1.0;"/><text fill="#000000" font-family="sans-serif" font-size="11" lengthAdjust="spacing" textLength="86" x="27" y="370.8198">MagicWand(int)</text><ellipse cx="18" cy="380.4141" fill="#84BE84" rx="3" ry="3" style="stroke:#038048;stroke-width:1.0;"/><text fill="#000000" font-family="sans-serif" font-size="11" lengthAdjust="spacing" textLength="183" x="27" y="383.6245">MagicWand(const MagicWand &amp;)</text><ellipse cx="18" cy="393.2188" fill="#84BE84" rx="3" ry="3" style="stroke:#038048;stroke-width:1.0;"/><text fill="#000000" font-family="sans-serif" font-size="11" font-style="italic" lengthAdjust="spacing" textLength="189" x="27" y="396.4292">~MagicWand() override = default</text><line style="stroke:#A80036;stroke-width:1.0;stroke-dasharray:1.0,2.0;" x1="8" x2="221" y1="403.0234" y2="403.0234"/><ellipse cx="18" cy="414.0234" fill="#84BE84" rx="3" ry="3" style="stroke:#038048;stroke-width:1.0;"/><text fill="#000000" font-family="sans-serif" font-size="11" lengthAdjust="spacing" textLength="175" x="27" y="417.2339">int getFeature() const override</text><ellipse cx="18" cy="426.8281" fill="#84BE84" rx="3" ry="3" style="stroke:#038048;stroke-width:1.0;"/><text fill="#000000" font-family="sans-serif" font-size="11" lengthAdjust="spacing" textLength="165" x="27" y="430.0386">int getName() const override</text><!--MD5=[e1530e5420ea9917ce8c76ad24bc6fac]
class TypePotion--><rect codeLine="32" fill="#FEFECE" filter="url(#f1hjb0o0h6kyml)" height="86.4141" id="TypePotion" style="stroke:#A80036;stroke-width:1.5;" width="98" x="729.5" y="64.5"/><ellipse cx="744.5" cy="80.5" fill="#EB937F" rx="11" ry="11" style="stroke:#A80036;stroke-width:1.0;"/><path d="M743.2969,81.375 L744.75,81.375 L744.75,81.4844 C744.75,81.8906 744.7813,82.0469 744.8594,82.2031 C745.0156,82.4531 745.2969,82.6094 745.5938,82.6094 C745.8438,82.6094 746.1094,82.4688 746.2656,82.25 C746.3906,82.0938 746.4219,81.9375 746.4219,81.4844 L746.4219,79.5625 C746.4219,79.4063 746.4219,79.3594 746.4063,79.2031 C746.3438,78.7344 746.0313,78.4219 745.5781,78.4219 C745.3281,78.4219 745.0625,78.5625 744.8906,78.7813 C744.7813,78.9531 744.75,79.1094 744.75,79.5625 L744.75,79.6875 L743.2969,79.6875 L743.2969,77.2813 L747.2813,77.2813 L747.2813,78.1406 C747.2813,78.5469 747.3125,78.7188 747.3906,78.875 C747.5625,79.125 747.8438,79.2813 748.125,79.2813 C748.3906,79.2813 748.6563,79.1406 748.8281,78.9219 C748.9375,78.75 748.9688,78.6094 748.9688,78.1406 L748.9688,75.5938 L741.3438,75.5938 C740.9063,75.5938 740.7813,75.6094 740.625,75.7031 C740.375,75.8594 740.2188,76.1563 740.2188,76.4375 C740.2188,76.7188 740.3594,76.9688 740.5781,77.1406 C740.7344,77.25 740.9219,77.2813 741.3438,77.2813 L741.5938,77.2813 L741.5938,83.7969 L741.3438,83.7969 C740.9375,83.7969 740.7813,83.8125 740.625,83.9219 C740.375,84.0938 740.2188,84.3594 740.2188,84.6563 C740.2188,84.9219 740.3594,85.1719 740.5781,85.3281 C740.7188,85.4531 740.9531,85.5 741.3438,85.5 L749.3438,85.5 L749.3438,82.9219 C749.3438,82.4844 749.3125,82.3438 749.2344,82.1875 C749.0625,81.9375 748.7813,81.7813 748.5,81.7813 C748.2344,81.7813 747.9688,81.8906 747.7969,82.1406 C747.6875,82.2969 747.6563,82.4375 747.6563,82.9219 L747.6563,83.7969 L743.2969,83.7969 L743.2969,81.375 Z " fill="#000000"/><text fill="#000000" font-family="sans-serif" font-size="12" lengthAdjust="spacing" textLength="66" x="758.5" y="84.6543">TypePotion</text><line style="stroke:#A80036;stroke-width:1.5;" x1="730.5" x2="826.5" y1="96.5" y2="96.5"/><text fill="#000000" font-family="sans-serif" font-size="11" lengthAdjust="spacing" textLength="35" x="735.5" y="110.7104">Agility</text><text fill="#000000" font-family="sans-serif" font-size="11" lengthAdjust="spacing" textLength="26" x="735.5" y="123.5151">Heal</text><text fill="#000000" font-family="sans-serif" font-size="11" lengthAdjust="spacing" textLength="49" x="735.5" y="136.3198">Strength</text><line style="stroke:#A80036;stroke-width:1.5;" x1="730.5" x2="826.5" y1="142.9141" y2="142.9141"/><!--MD5=[b0a16f083d971cd5fdb00a761526111f]
class Potion--><rect codeLine="39" fill="#FEFECE" filter="url(#f1hjb0o0h6kyml)" height="192.0469" id="Potion" style="stroke:#A80036;stroke-width:1.5;" width="208" x="257.5" y="268"/><ellipse cx="339.25" cy="284" fill="#ADD1B2" rx="11" ry="11" style="stroke:#A80036;stroke-width:1.0;"/><path d="M341.5938,279.6719 C340.6563,279.2344 340.0625,279.0938 339.1875,279.0938 C336.5625,279.0938 334.5625,281.1719 334.5625,283.8906 L334.5625,285.0156 C334.5625,287.5938 336.6719,289.4844 339.5625,289.4844 C340.7813,289.4844 341.9375,289.1875 342.6875,288.6406 C343.2656,288.2344 343.5938,287.7813 343.5938,287.3906 C343.5938,286.9375 343.2031,286.5469 342.7344,286.5469 C342.5156,286.5469 342.3125,286.625 342.125,286.8125 C341.6719,287.2969 341.6719,287.2969 341.4844,287.3906 C341.0625,287.6563 340.375,287.7813 339.6094,287.7813 C337.5625,287.7813 336.2656,286.6875 336.2656,284.9844 L336.2656,283.8906 C336.2656,282.1094 337.5156,280.7969 339.25,280.7969 C339.8281,280.7969 340.4375,280.9531 340.9063,281.2031 C341.3906,281.4844 341.5625,281.7031 341.6563,282.1094 C341.7188,282.5156 341.75,282.6406 341.8906,282.7656 C342.0313,282.9063 342.2656,283.0156 342.4844,283.0156 C342.75,283.0156 343.0156,282.875 343.1875,282.6563 C343.2969,282.5 343.3281,282.3125 343.3281,281.8906 L343.3281,280.4688 C343.3281,280.0313 343.3125,279.9063 343.2188,279.75 C343.0625,279.4844 342.7813,279.3438 342.4844,279.3438 C342.1875,279.3438 341.9844,279.4375 341.7656,279.75 L341.5938,279.6719 Z " fill="#000000"/><text fill="#000000" font-family="sans-serif" font-size="12" lengthAdjust="spacing" textLength="36" x="359.75" y="288.1543">Potion</text><line style="stroke:#A80036;stroke-width:1.5;" x1="258.5" x2="464.5" y1="300" y2="300"/><rect fill="none" height="6" style="stroke:#C82930;stroke-width:1.0;" width="6" x="265.5" y="308"/><text fill="#000000" font-family="sans-serif" font-size="11" lengthAdjust="spacing" textLength="53" x="277.5" y="314.2104">int power</text><rect fill="none" height="6" style="stroke:#C82930;stroke-width:1.0;" width="6" x="265.5" y="320.8047"/><text fill="#000000" font-family="sans-serif" font-size="11" lengthAdjust="spacing" textLength="98" x="277.5" y="327.0151">TypePotion utility</text><rect fill="none" height="6" style="stroke:#C82930;stroke-width:1.0;" width="6" x="265.5" y="333.6094"/><text fill="#000000" font-family="sans-serif" font-size="11" lengthAdjust="spacing" textLength="106" x="277.5" y="339.8198">string enumToStr[]</text><line style="stroke:#A80036;stroke-width:1.0;stroke-dasharray:1.0,2.0;" x1="258.5" x2="464.5" y1="346.4141" y2="346.4141"/><ellipse cx="268.5" cy="357.4141" fill="#84BE84" rx="3" ry="3" style="stroke:#038048;stroke-width:1.0;"/><text fill="#000000" font-family="sans-serif" font-size="11" lengthAdjust="spacing" textLength="99" x="277.5" y="360.6245">Potion() = default</text><ellipse cx="268.5" cy="370.2188" fill="#84BE84" rx="3" ry="3" style="stroke:#038048;stroke-width:1.0;"/><text fill="#000000" font-family="sans-serif" font-size="11" lengthAdjust="spacing" textLength="115" x="277.5" y="373.4292">Potion(power, utility)</text><ellipse cx="268.5" cy="383.0234" fill="#84BE84" rx="3" ry="3" style="stroke:#038048;stroke-width:1.0;"/><text fill="#000000" font-family="sans-serif" font-size="11" lengthAdjust="spacing" textLength="123" x="277.5" y="386.2339">Potion(const Potion &amp;)</text><ellipse cx="268.5" cy="395.8281" fill="#84BE84" rx="3" ry="3" style="stroke:#038048;stroke-width:1.0;"/><text fill="#000000" font-family="sans-serif" font-size="11" font-style="italic" lengthAdjust="spacing" textLength="160" x="277.5" y="399.0386">~Potion() override = default</text><line style="stroke:#A80036;stroke-width:1.0;stroke-dasharray:1.0,2.0;" x1="258.5" x2="464.5" y1="405.6328" y2="405.6328"/><ellipse cx="268.5" cy="416.6328" fill="#84BE84" rx="3" ry="3" style="stroke:#038048;stroke-width:1.0;"/><text fill="#000000" font-family="sans-serif" font-size="11" lengthAdjust="spacing" textLength="160" x="277.5" y="419.8433">TypePotion getUtility() const</text><line style="stroke:#A80036;stroke-width:1.0;stroke-dasharray:1.0,2.0;" x1="258.5" x2="464.5" y1="426.4375" y2="426.4375"/><ellipse cx="268.5" cy="437.4375" fill="#84BE84" rx="3" ry="3" style="stroke:#038048;stroke-width:1.0;"/><text fill="#000000" font-family="sans-serif" font-size="11" lengthAdjust="spacing" textLength="175" x="277.5" y="440.6479">int getFeature() const override</text><ellipse cx="268.5" cy="450.2422" fill="#84BE84" rx="3" ry="3" style="stroke:#038048;stroke-width:1.0;"/><text fill="#000000" font-family="sans-serif" font-size="11" lengthAdjust="spacing" textLength="182" x="277.5" y="453.4526">string getName() const override</text><!--MD5=[c78802c0212743a9db9428562e0a19fd]
class Scepter--><rect codeLine="57" fill="#FEFECE" filter="url(#f1hjb0o0h6kyml)" height="145.6328" id="Scepter" style="stroke:#A80036;stroke-width:1.5;" width="208" x="500.5" y="291"/><ellipse cx="576.25" cy="307" fill="#ADD1B2" rx="11" ry="11" style="stroke:#A80036;stroke-width:1.0;"/><path d="M578.5938,302.6719 C577.6563,302.2344 577.0625,302.0938 576.1875,302.0938 C573.5625,302.0938 571.5625,304.1719 571.5625,306.8906 L571.5625,308.0156 C571.5625,310.5938 573.6719,312.4844 576.5625,312.4844 C577.7813,312.4844 578.9375,312.1875 579.6875,311.6406 C580.2656,311.2344 580.5938,310.7813 580.5938,310.3906 C580.5938,309.9375 580.2031,309.5469 579.7344,309.5469 C579.5156,309.5469 579.3125,309.625 579.125,309.8125 C578.6719,310.2969 578.6719,310.2969 578.4844,310.3906 C578.0625,310.6563 577.375,310.7813 576.6094,310.7813 C574.5625,310.7813 573.2656,309.6875 573.2656,307.9844 L573.2656,306.8906 C573.2656,305.1094 574.5156,303.7969 576.25,303.7969 C576.8281,303.7969 577.4375,303.9531 577.9063,304.2031 C578.3906,304.4844 578.5625,304.7031 578.6563,305.1094 C578.7188,305.5156 578.75,305.6406 578.8906,305.7656 C579.0313,305.9063 579.2656,306.0156 579.4844,306.0156 C579.75,306.0156 580.0156,305.875 580.1875,305.6563 C580.2969,305.5 580.3281,305.3125 580.3281,304.8906 L580.3281,303.4688 C580.3281,303.0313 580.3125,302.9063 580.2188,302.75 C580.0625,302.4844 579.7813,302.3438 579.4844,302.3438 C579.1875,302.3438 578.9844,302.4375 578.7656,302.75 L578.5938,302.6719 Z " fill="#000000"/><text fill="#000000" font-family="sans-serif" font-size="12" lengthAdjust="spacing" textLength="48" x="596.75" y="311.1543">Scepter</text><line style="stroke:#A80036;stroke-width:1.5;" x1="501.5" x2="707.5" y1="323" y2="323"/><rect fill="none" height="6" style="stroke:#C82930;stroke-width:1.0;" width="6" x="508.5" y="331"/><text fill="#000000" font-family="sans-serif" font-size="11" lengthAdjust="spacing" textLength="53" x="520.5" y="337.2104">int power</text><line style="stroke:#A80036;stroke-width:1.0;stroke-dasharray:1.0,2.0;" x1="501.5" x2="707.5" y1="343.8047" y2="343.8047"/><ellipse cx="511.5" cy="354.8047" fill="#84BE84" rx="3" ry="3" style="stroke:#038048;stroke-width:1.0;"/><text fill="#000000" font-family="sans-serif" font-size="11" lengthAdjust="spacing" textLength="110" x="520.5" y="358.0151">Scepter() = default</text><ellipse cx="511.5" cy="367.6094" fill="#84BE84" rx="3" ry="3" style="stroke:#038048;stroke-width:1.0;"/><text fill="#000000" font-family="sans-serif" font-size="11" lengthAdjust="spacing" textLength="67" x="520.5" y="370.8198">Scepter(int)</text><ellipse cx="511.5" cy="380.4141" fill="#84BE84" rx="3" ry="3" style="stroke:#038048;stroke-width:1.0;"/><text fill="#000000" font-family="sans-serif" font-size="11" lengthAdjust="spacing" textLength="145" x="520.5" y="383.6245">Scepter(const Scepter &amp;)</text><ellipse cx="511.5" cy="393.2188" fill="#84BE84" rx="3" ry="3" style="stroke:#038048;stroke-width:1.0;"/><text fill="#000000" font-family="sans-serif" font-size="11" font-style="italic" lengthAdjust="spacing" textLength="168" x="520.5" y="396.4292">~Scepter() override = default</text><line style="stroke:#A80036;stroke-width:1.0;stroke-dasharray:1.0,2.0;" x1="501.5" x2="707.5" y1="403.0234" y2="403.0234"/><ellipse cx="511.5" cy="414.0234" fill="#84BE84" rx="3" ry="3" style="stroke:#038048;stroke-width:1.0;"/><text fill="#000000" font-family="sans-serif" font-size="11" lengthAdjust="spacing" textLength="175" x="520.5" y="417.2339">int getFeature() const override</text><ellipse cx="511.5" cy="426.8281" fill="#84BE84" rx="3" ry="3" style="stroke:#038048;stroke-width:1.0;"/><text fill="#000000" font-family="sans-serif" font-size="11" lengthAdjust="spacing" textLength="182" x="520.5" y="430.0386">string getName() const override</text><!--MD5=[0335979a550fbd11f2466c06e262e7ca]
class Shield--><rect codeLine="71" fill="#FEFECE" filter="url(#f1hjb0o0h6kyml)" height="166.4375" id="Shield" style="stroke:#A80036;stroke-width:1.5;" width="208" x="743.5" y="281"/><ellipse cx="824.75" cy="297" fill="#ADD1B2" rx="11" ry="11" style="stroke:#A80036;stroke-width:1.0;"/><path d="M827.0938,292.6719 C826.1563,292.2344 825.5625,292.0938 824.6875,292.0938 C822.0625,292.0938 820.0625,294.1719 820.0625,296.8906 L820.0625,298.0156 C820.0625,300.5938 822.1719,302.4844 825.0625,302.4844 C826.2813,302.4844 827.4375,302.1875 828.1875,301.6406 C828.7656,301.2344 829.0938,300.7813 829.0938,300.3906 C829.0938,299.9375 828.7031,299.5469 828.2344,299.5469 C828.0156,299.5469 827.8125,299.625 827.625,299.8125 C827.1719,300.2969 827.1719,300.2969 826.9844,300.3906 C826.5625,300.6563 825.875,300.7813 825.1094,300.7813 C823.0625,300.7813 821.7656,299.6875 821.7656,297.9844 L821.7656,296.8906 C821.7656,295.1094 823.0156,293.7969 824.75,293.7969 C825.3281,293.7969 825.9375,293.9531 826.4063,294.2031 C826.8906,294.4844 827.0625,294.7031 827.1563,295.1094 C827.2188,295.5156 827.25,295.6406 827.3906,295.7656 C827.5313,295.9063 827.7656,296.0156 827.9844,296.0156 C828.25,296.0156 828.5156,295.875 828.6875,295.6563 C828.7969,295.5 828.8281,295.3125 828.8281,294.8906 L828.8281,293.4688 C828.8281,293.0313 828.8125,292.9063 828.7188,292.75 C828.5625,292.4844 828.2813,292.3438 827.9844,292.3438 C827.6875,292.3438 827.4844,292.4375 827.2656,292.75 L827.0938,292.6719 Z " fill="#000000"/><text fill="#000000" font-family="sans-serif" font-size="12" lengthAdjust="spacing" textLength="37" x="845.25" y="301.1543">Shield</text><line style="stroke:#A80036;stroke-width:1.5;" x1="744.5" x2="950.5" y1="313" y2="313"/><rect fill="none" height="6" style="stroke:#C82930;stroke-width:1.0;" width="6" x="751.5" y="321"/><text fill="#000000" font-family="sans-serif" font-size="11" lengthAdjust="spacing" textLength="58" x="763.5" y="327.2104">int solidity</text><line style="stroke:#A80036;stroke-width:1.0;stroke-dasharray:1.0,2.0;" x1="744.5" x2="950.5" y1="333.8047" y2="333.8047"/><ellipse cx="754.5" cy="344.8047" fill="#84BE84" rx="3" ry="3" style="stroke:#038048;stroke-width:1.0;"/><text fill="#000000" font-family="sans-serif" font-size="11" lengthAdjust="spacing" textLength="101" x="763.5" y="348.0151">Shield() = default</text><ellipse cx="754.5" cy="357.6094" fill="#84BE84" rx="3" ry="3" style="stroke:#038048;stroke-width:1.0;"/><text fill="#000000" font-family="sans-serif" font-size="11" lengthAdjust="spacing" textLength="58" x="763.5" y="360.8198">Shield(int)</text><ellipse cx="754.5" cy="370.4141" fill="#84BE84" rx="3" ry="3" style="stroke:#038048;stroke-width:1.0;"/><text fill="#000000" font-family="sans-serif" font-size="11" lengthAdjust="spacing" textLength="127" x="763.5" y="373.6245">Shield(const Shield &amp;)</text><ellipse cx="754.5" cy="383.2188" fill="#84BE84" rx="3" ry="3" style="stroke:#038048;stroke-width:1.0;"/><text fill="#000000" font-family="sans-serif" font-size="11" font-style="italic" lengthAdjust="spacing" textLength="159" x="763.5" y="386.4292">~Shield() override = default</text><line style="stroke:#A80036;stroke-width:1.0;stroke-dasharray:1.0,2.0;" x1="744.5" x2="950.5" y1="393.0234" y2="393.0234"/><ellipse cx="754.5" cy="404.0234" fill="#84BE84" rx="3" ry="3" style="stroke:#038048;stroke-width:1.0;"/><text fill="#000000" font-family="sans-serif" font-size="11" lengthAdjust="spacing" textLength="172" x="763.5" y="407.2339">double reduceSolidity(double)</text><line style="stroke:#A80036;stroke-width:1.0;stroke-dasharray:1.0,2.0;" x1="744.5" x2="950.5" y1="413.8281" y2="413.8281"/><ellipse cx="754.5" cy="424.8281" fill="#84BE84" rx="3" ry="3" style="stroke:#038048;stroke-width:1.0;"/><text fill="#000000" font-family="sans-serif" font-size="11" lengthAdjust="spacing" textLength="175" x="763.5" y="428.0386">int getFeature() const override</text><ellipse cx="754.5" cy="437.6328" fill="#84BE84" rx="3" ry="3" style="stroke:#038048;stroke-width:1.0;"/><text fill="#000000" font-family="sans-serif" font-size="11" lengthAdjust="spacing" textLength="182" x="763.5" y="440.8433">string getName() const override</text><!--MD5=[53a1db06a8ddb586c04aec032f1cb7b6]
class Sword--><rect codeLine="87" fill="#FEFECE" filter="url(#f1hjb0o0h6kyml)" height="145.6328" id="Sword" style="stroke:#A80036;stroke-width:1.5;" width="208" x="986.5" y="291"/><ellipse cx="1066.75" cy="307" fill="#ADD1B2" rx="11" ry="11" style="stroke:#A80036;stroke-width:1.0;"/><path d="M1069.0938,302.6719 C1068.1563,302.2344 1067.5625,302.0938 1066.6875,302.0938 C1064.0625,302.0938 1062.0625,304.1719 1062.0625,306.8906 L1062.0625,308.0156 C1062.0625,310.5938 1064.1719,312.4844 1067.0625,312.4844 C1068.2813,312.4844 1069.4375,312.1875 1070.1875,311.6406 C1070.7656,311.2344 1071.0938,310.7813 1071.0938,310.3906 C1071.0938,309.9375 1070.7031,309.5469 1070.2344,309.5469 C1070.0156,309.5469 1069.8125,309.625 1069.625,309.8125 C1069.1719,310.2969 1069.1719,310.2969 1068.9844,310.3906 C1068.5625,310.6563 1067.875,310.7813 1067.1094,310.7813 C1065.0625,310.7813 1063.7656,309.6875 1063.7656,307.9844 L1063.7656,306.8906 C1063.7656,305.1094 1065.0156,303.7969 1066.75,303.7969 C1067.3281,303.7969 1067.9375,303.9531 1068.4063,304.2031 C1068.8906,304.4844 1069.0625,304.7031 1069.1563,305.1094 C1069.2188,305.5156 1069.25,305.6406 1069.3906,305.7656 C1069.5313,305.9063 1069.7656,306.0156 1069.9844,306.0156 C1070.25,306.0156 1070.5156,305.875 1070.6875,305.6563 C1070.7969,305.5 1070.8281,305.3125 1070.8281,304.8906 L1070.8281,303.4688 C1070.8281,303.0313 1070.8125,302.9063 1070.7188,302.75 C1070.5625,302.4844 1070.2813,302.3438 1069.9844,302.3438 C1069.6875,302.3438 1069.4844,302.4375 1069.2656,302.75 L1069.0938,302.6719 Z " fill="#000000"/><text fill="#000000" font-family="sans-serif" font-size="12" lengthAdjust="spacing" textLength="39" x="1087.25" y="311.1543">Sword</text><line style="stroke:#A80036;stroke-width:1.5;" x1="987.5" x2="1193.5" y1="323" y2="323"/><rect fill="none" height="6" style="stroke:#C82930;stroke-width:1.0;" width="6" x="994.5" y="331"/><text fill="#000000" font-family="sans-serif" font-size="11" lengthAdjust="spacing" textLength="65" x="1006.5" y="337.2104">int damage</text><line style="stroke:#A80036;stroke-width:1.0;stroke-dasharray:1.0,2.0;" x1="987.5" x2="1193.5" y1="343.8047" y2="343.8047"/><ellipse cx="997.5" cy="354.8047" fill="#84BE84" rx="3" ry="3" style="stroke:#038048;stroke-width:1.0;"/><text fill="#000000" font-family="sans-serif" font-size="11" lengthAdjust="spacing" textLength="100" x="1006.5" y="358.0151">Sword() = default</text><ellipse cx="997.5" cy="367.6094" fill="#84BE84" rx="3" ry="3" style="stroke:#038048;stroke-width:1.0;"/><text fill="#000000" font-family="sans-serif" font-size="11" lengthAdjust="spacing" textLength="57" x="1006.5" y="370.8198">Sword(int)</text><ellipse cx="997.5" cy="380.4141" fill="#84BE84" rx="3" ry="3" style="stroke:#038048;stroke-width:1.0;"/><text fill="#000000" font-family="sans-serif" font-size="11" lengthAdjust="spacing" textLength="125" x="1006.5" y="383.6245">Sword(const Sword &amp;)</text><ellipse cx="997.5" cy="393.2188" fill="#84BE84" rx="3" ry="3" style="stroke:#038048;stroke-width:1.0;"/><text fill="#000000" font-family="sans-serif" font-size="11" font-style="italic" lengthAdjust="spacing" textLength="160" x="1006.5" y="396.4292">~Sword() override = default</text><line style="stroke:#A80036;stroke-width:1.0;stroke-dasharray:1.0,2.0;" x1="987.5" x2="1193.5" y1="403.0234" y2="403.0234"/><ellipse cx="997.5" cy="414.0234" fill="#84BE84" rx="3" ry="3" style="stroke:#038048;stroke-width:1.0;"/><text fill="#000000" font-family="sans-serif" font-size="11" lengthAdjust="spacing" textLength="175" x="1006.5" y="417.2339">int getFeature() const override</text><ellipse cx="997.5" cy="426.8281" fill="#84BE84" rx="3" ry="3" style="stroke:#038048;stroke-width:1.0;"/><text fill="#000000" font-family="sans-serif" font-size="11" lengthAdjust="spacing" textLength="182" x="1006.5" y="430.0386">string getName() const override</text><!--MD5=[6d3138dc0b2ca153689aac316bba1694]
reverse link IObject to MagicWand--><path codeLine="101" d="M496.15,147.987 C421.746,176.971 321.926,219.603 239.5,268 C227.747,274.901 215.817,282.73 204.227,290.861 " fill="none" id="IObject-backto-MagicWand" style="stroke:#A80036;stroke-width:1.0;"/><polygon fill="none" points="493.795,141.393,514.975,140.733,498.829,154.456,493.795,141.393" style="stroke:#A80036;stroke-width:1.0;"/><!--MD5=[b3f0770cbf9003b1090652d78af3c865]
reverse link IObject to Potion--><path codeLine="102" d="M500.756,217.154 C484.725,233.943 468.273,251.174 452.549,267.643 " fill="none" id="IObject-backto-Potion" style="stroke:#A80036;stroke-width:1.0;"/><polygon fill="none" points="495.832,212.174,514.706,202.543,505.957,221.843,495.832,212.174" style="stroke:#A80036;stroke-width:1.0;"/><!--MD5=[f4e1a157f67f5062d63a548dd60d02c1]
reverse link IObject to Scepter--><path codeLine="103" d="M604.5,228.627 C604.5,249.938 604.5,271.516 604.5,290.961 " fill="none" id="IObject-backto-Scepter" style="stroke:#A80036;stroke-width:1.0;"/><polygon fill="none" points="597.5,228.355,604.5,208.355,611.5,228.355,597.5,228.355" style="stroke:#A80036;stroke-width:1.0;"/><!--MD5=[d220b865ebe104149e7a5da5edcd7439]
reverse link IObject to Shield--><path codeLine="104" d="M708.225,217.133 C728.545,238.415 749.543,260.407 768.879,280.658 " fill="none" id="IObject-backto-Shield" style="stroke:#A80036;stroke-width:1.0;"/><polygon fill="none" points="703.043,221.843,694.294,202.543,713.168,212.174,703.043,221.843" style="stroke:#A80036;stroke-width:1.0;"/><!--MD5=[f37014c78bad736e238749a9ff4b9286]
reverse link IObject to Sword--><path codeLine="105" d="M711.339,207.38 C711.726,207.588 712.113,207.795 712.5,208 C816.162,262.881 863.755,217.248 969.5,268 C982.623,274.298 995.642,282.22 1008.01,290.79 " fill="none" id="IObject-backto-Sword" style="stroke:#A80036;stroke-width:1.0;"/><polygon fill="none" points="707.666,213.339,694.22,196.962,714.944,201.379,707.666,213.339" style="stroke:#A80036;stroke-width:1.0;"/><!--MD5=[08c7214e112b13e18e8643a643343144]
@startuml
interface IObject
    {
        #int posX
        #int posY
        ..
        +{abstract} ~IObject() = default
        .. Getter ..
        +int getPosX() const
        +int getPosY() const
        .. Setter ..
        +void setPosXY(int, int)
        .. Virtual ..
        +{abstract} int getFeature() const = 0
        +{abstract} string getName() const = 0
    }


    class MagicWand
    {
        -int power
        ..
        +MagicWand() = default
        +MagicWand(int)
        +MagicWand(const MagicWand &)
        +{abstract} ~MagicWand() override = default
        ..
        +int getFeature() const override
        +int getName() const override
    }


    enum TypePotion
    {
        Agility
        Heal
        Strength
    }

    class Potion
    {
        -int power
        -TypePotion utility
        -string enumToStr[]
        ..
        +Potion() = default
        +Potion(power, utility)
        +Potion(const Potion &)
        +{abstract} ~Potion() override = default
        ..
        +TypePotion getUtility() const
        ..
        +int getFeature() const override
        +string getName() const override
    }


    class Scepter
    {
        -int power
        ..
        +Scepter() = default
        +Scepter(int)
        +Scepter(const Scepter &)
        +{abstract} ~Scepter() override = default
        ..
        +int getFeature() const override
        +string getName() const override
    }


    class Shield
    {
        -int solidity
        ..
        +Shield() = default
        +Shield(int)
        +Shield(const Shield &)
        +{abstract} ~Shield() override = default
        ..
        +double reduceSolidity(double)
        ..
        +int getFeature() const override
        +string getName() const override
    }


    class Sword
    {
        -int damage
        ..
        +Sword() = default
        +Sword(int)
        +Sword(const Sword &)
        +{abstract} ~Sword() override = default
        ..
        +int getFeature() const override
        +string getName() const override
    }


    IObject <|- - MagicWand
    IObject <|- - Potion
    IObject <|- - Scepter
    IObject <|- - Shield
    IObject <|- - Sword
@enduml

PlantUML version 1.2021.7(Sun May 23 12:40:07 UTC 2021)
(GPL source distribution)
Java Runtime: Java(TM) SE Runtime Environment
JVM: Java HotSpot(TM) 64-Bit Server VM
Default Encoding: UTF-8
Language: en
Country: US
--></g></svg>